<svg width="256" height="256" viewBox="0 0 256 256" fill="none" xmlns="http://www.w3.org/2000/svg">
<g clip-path="url(#clip0_196_4792)">
<rect width="256" height="256" fill="url(#paint0_linear_196_4792)"/>
<rect width="256" height="256" fill="white" fill-opacity="0.6"/>
<circle opacity="0.03" cx="252.514" cy="-367.728" r="636.235" fill="#6E1990"/>
<circle opacity="0.05" cx="437.766" cy="625.346" r="636.235" fill="#FF8E8E"/>
<circle opacity="0.03" cx="-181.766" cy="625.346" r="636.235" fill="#906019"/>
<rect width="4.29135" height="4.29135" transform="matrix(-1 0 0 1 184.01 99.9902)" fill="black"/>
<rect width="4.29135" height="4.29135" transform="matrix(-1 0 0 1 156.546 78.5334)" fill="black"/>
<rect width="4.29135" height="4.29135" transform="matrix(-1 0 0 1 215.766 143.762)" fill="black"/>
<rect width="4.29135" height="4.29135" transform="matrix(-1 0 0 1 238.94 164.361)" fill="black"/>
<rect width="4.29135" height="4.29135" transform="matrix(-1 0 0 1 228.64 155.778)" fill="black"/>
<rect width="4.29135" height="4.29135" transform="matrix(-1 0 0 1 223.491 160.069)" fill="black"/>
<rect width="4.29135" height="4.29135" transform="matrix(-1 0 0 1 252.672 194.4)" fill="black"/>
<rect width="4.29135" height="4.29135" transform="matrix(-1 0 0 1 126.506 51.0687)" fill="black"/>
<rect width="4.29135" height="4.29135" transform="matrix(-1 0 0 1 193.451 117.156)" fill="black"/>
<rect width="4.29135" height="4.29135" transform="matrix(-1 0 0 1 234.648 214.999)" fill="black"/>
<rect width="4.29135" height="4.29135" transform="matrix(-1 0 0 1 113.632 58.7932)" fill="black"/>
<rect width="4.29135" height="4.29135" transform="matrix(-1 0 0 1 105.908 61.3683)" fill="black"/>
<rect x="6.94946" y="62.2263" width="4.29135" height="4.29135" fill="black"/>
<rect x="6.94946" y="68.2341" width="4.29135" height="4.29135" fill="black"/>
<rect x="0.941711" y="74.2421" width="4.29135" height="4.29135" fill="black"/>
<rect width="4.29135" height="4.29135" transform="matrix(-1 0 0 1 214.05 166.077)" fill="black"/>
<rect x="215.509" y="245.896" width="4.29135" height="4.29135" fill="black"/>
<rect x="221.517" y="245.896" width="4.29135" height="4.29135" fill="black"/>
<rect x="215.509" y="221.865" width="4.29135" height="4.29135" fill="black"/>
<rect x="215.509" y="190.967" width="4.29135" height="4.29135" fill="black"/>
<rect x="209.502" y="184.959" width="4.29135" height="4.29135" fill="black"/>
<rect x="221.517" y="221.865" width="4.29135" height="4.29135" fill="black"/>
<rect x="215.509" y="251.904" width="4.29135" height="4.29135" fill="black"/>
<rect x="215.509" y="227.872" width="4.29135" height="4.29135" fill="black"/>
<rect x="215.509" y="196.975" width="4.29135" height="4.29135" fill="black"/>
<rect x="209.502" y="190.967" width="4.29135" height="4.29135" fill="black"/>
<rect x="221.517" y="227.872" width="4.29135" height="4.29135" fill="black"/>
<rect x="215.509" y="239.888" width="4.29135" height="4.29135" fill="black"/>
<rect x="221.517" y="239.888" width="4.29135" height="4.29135" fill="black"/>
<rect x="215.509" y="215.857" width="4.29135" height="4.29135" fill="black"/>
<rect x="215.509" y="184.959" width="4.29135" height="4.29135" fill="black"/>
<rect x="209.502" y="178.951" width="4.29135" height="4.29135" fill="black"/>
<rect x="221.517" y="215.857" width="4.29135" height="4.29135" fill="black"/>
<rect x="215.509" y="233.88" width="4.29135" height="4.29135" fill="black"/>
<rect x="215.509" y="202.983" width="4.29135" height="4.29135" fill="black"/>
<rect x="209.502" y="196.975" width="4.29135" height="4.29135" fill="black"/>
<rect x="221.517" y="233.88" width="4.29135" height="4.29135" fill="black"/>
<rect x="215.509" y="209.849" width="4.29135" height="4.29135" fill="black"/>
<rect x="215.509" y="178.951" width="4.29135" height="4.29135" fill="black"/>
<rect x="209.502" y="172.943" width="4.29135" height="4.29135" fill="black"/>
<rect x="203.493" y="172.943" width="4.29135" height="4.29135" fill="black"/>
<rect x="196.628" y="160.069" width="4.29135" height="4.29135" fill="black"/>
<rect x="190.619" y="148.053" width="4.29135" height="4.29135" fill="black"/>
<rect x="203.493" y="160.927" width="4.29135" height="4.29135" fill="black"/>
<rect x="196.628" y="148.053" width="4.29135" height="4.29135" fill="black"/>
<rect x="190.619" y="136.037" width="4.29135" height="4.29135" fill="black"/>
<rect x="184.612" y="130.03" width="4.29135" height="4.29135" fill="black"/>
<rect x="178.604" y="130.03" width="4.29135" height="4.29135" fill="black"/>
<rect x="203.493" y="166.936" width="4.29135" height="4.29135" fill="black"/>
<rect x="190.619" y="142.046" width="4.29135" height="4.29135" fill="black"/>
<rect x="196.628" y="154.061" width="4.29135" height="4.29135" fill="black"/>
<rect x="184.612" y="136.037" width="4.29135" height="4.29135" fill="black"/>
<rect x="178.604" y="117.156" width="4.29135" height="4.29135" fill="black"/>
<rect x="172.596" y="111.148" width="4.29135" height="4.29135" fill="black"/>
<rect x="166.588" y="105.14" width="4.29135" height="4.29135" fill="black"/>
<rect x="159.722" y="99.132" width="4.29135" height="4.29135" fill="black"/>
<rect x="153.714" y="93.124" width="4.29135" height="4.29135" fill="black"/>
<rect x="147.706" y="93.124" width="4.29135" height="4.29135" fill="black"/>
<rect x="141.698" y="93.124" width="4.29135" height="4.29135" fill="black"/>
<rect x="135.69" y="87.1161" width="4.29135" height="4.29135" fill="black"/>
<rect x="129.682" y="87.1161" width="4.29135" height="4.29135" fill="black"/>
<rect x="123.674" y="81.1082" width="4.29135" height="4.29135" fill="black"/>
<rect x="117.666" y="81.1082" width="4.29135" height="4.29135" fill="black"/>
<rect x="110.8" y="75.1006" width="4.29135" height="4.29135" fill="black"/>
<rect x="104.793" y="75.1006" width="4.29135" height="4.29135" fill="black"/>
<rect x="104.793" y="68.2341" width="4.29135" height="4.29135" fill="black"/>
<rect x="92.7769" y="68.2341" width="4.29135" height="4.29135" fill="black"/>
<rect x="80.7609" y="68.2341" width="4.29135" height="4.29135" fill="black"/>
<rect x="73.8948" y="68.2341" width="4.29135" height="4.29135" fill="black"/>
<rect x="141.698" y="87.1161" width="4.29135" height="4.29135" fill="black"/>
<rect x="135.69" y="81.1082" width="4.29135" height="4.29135" fill="black"/>
<rect x="129.682" y="81.1082" width="4.29135" height="4.29135" fill="black"/>
<rect x="147.706" y="87.1161" width="4.29135" height="4.29135" fill="black"/>
<rect x="123.674" y="75.1006" width="4.29135" height="4.29135" fill="black"/>
<rect x="117.666" y="75.1006" width="4.29135" height="4.29135" fill="black"/>
<rect x="98.7844" y="68.2341" width="4.29135" height="4.29135" fill="black"/>
<rect x="110.8" y="68.2341" width="4.29135" height="4.29135" fill="black"/>
<rect x="86.7687" y="68.2341" width="4.29135" height="4.29135" fill="black"/>
<rect x="209.502" y="166.936" width="4.29135" height="4.29135" fill="black"/>
<rect x="190.619" y="130.03" width="4.29135" height="4.29135" fill="black"/>
<rect x="203.493" y="154.92" width="4.29135" height="4.29135" fill="black"/>
<rect x="196.628" y="142.046" width="4.29135" height="4.29135" fill="black"/>
<rect x="184.612" y="124.022" width="4.29135" height="4.29135" fill="black"/>
<rect x="178.604" y="124.022" width="4.29135" height="4.29135" fill="black"/>
<rect x="166.588" y="111.148" width="4.29135" height="4.29135" fill="black"/>
<rect x="159.722" y="105.14" width="4.29135" height="4.29135" fill="black"/>
<rect x="172.596" y="117.156" width="4.29135" height="4.29135" fill="black"/>
<rect x="153.714" y="99.132" width="4.29135" height="4.29135" fill="black"/>
<rect x="147.706" y="99.132" width="4.29135" height="4.29135" fill="black"/>
<rect x="221.517" y="209.849" width="4.29135" height="4.29135" fill="black"/>
<rect x="12.9574" y="62.2263" width="4.29135" height="4.29135" fill="black"/>
<rect x="12.9574" y="68.2341" width="4.29135" height="4.29135" fill="black"/>
<rect x="18.9654" y="62.2263" width="4.29135" height="4.29135" fill="black"/>
<rect x="18.9654" y="68.2341" width="4.29135" height="4.29135" fill="black"/>
<rect x="0.941711" y="68.2341" width="4.29135" height="4.29135" fill="black"/>
<rect x="24.9734" y="62.2263" width="4.29135" height="4.29135" fill="black"/>
<rect x="24.9734" y="68.2341" width="4.29135" height="4.29135" fill="black"/>
<rect x="30.9811" y="62.2263" width="4.29135" height="4.29135" fill="black"/>
<rect x="31.8394" y="87.9744" width="4.29135" height="4.29135" fill="black"/>
<rect x="31.8394" y="93.9824" width="4.29135" height="4.29135" fill="black"/>
<rect x="31.8394" y="99.9902" width="4.29135" height="4.29135" fill="black"/>
<rect x="31.8394" y="105.998" width="4.29135" height="4.29135" fill="black"/>
<rect x="31.8394" y="112.006" width="4.29135" height="4.29135" fill="black"/>
<rect x="31.8394" y="118.014" width="4.29135" height="4.29135" fill="black"/>
<rect x="31.8394" y="124.022" width="4.29135" height="4.29135" fill="black"/>
<rect x="31.8394" y="130.03" width="4.29135" height="4.29135" fill="black"/>
<rect x="31.8394" y="136.037" width="4.29135" height="4.29135" fill="black"/>
<rect x="31.8394" y="142.046" width="4.29135" height="4.29135" fill="black"/>
<rect x="31.8394" y="148.053" width="4.29135" height="4.29135" fill="black"/>
<rect x="7.80792" y="93.9824" width="4.29135" height="4.29135" fill="black"/>
<rect x="7.80792" y="99.9902" width="4.29135" height="4.29135" fill="black"/>
<rect x="7.80792" y="105.998" width="4.29135" height="4.29135" fill="black"/>
<rect x="7.80792" y="112.006" width="4.29135" height="4.29135" fill="black"/>
<rect x="7.80792" y="118.014" width="4.29135" height="4.29135" fill="black"/>
<rect x="7.80792" y="124.022" width="4.29135" height="4.29135" fill="black"/>
<rect x="7.80792" y="136.037" width="4.29135" height="4.29135" fill="black"/>
<rect x="7.80792" y="130.03" width="4.29135" height="4.29135" fill="black"/>
<rect x="7.80792" y="142.046" width="4.29135" height="4.29135" fill="black"/>
<rect x="7.80792" y="148.053" width="4.29135" height="4.29135" fill="black"/>
<rect x="-4.20807" y="99.9902" width="4.29135" height="4.29135" fill="black"/>
<rect x="-4.20807" y="105.998" width="4.29135" height="4.29135" fill="black"/>
<rect x="-4.20807" y="112.006" width="4.29135" height="4.29135" fill="black"/>
<rect x="-4.20807" y="118.014" width="4.29135" height="4.29135" fill="black"/>
<rect x="-4.20807" y="136.037" width="4.29135" height="4.29135" fill="black"/>
<rect x="-4.20807" y="124.022" width="4.29135" height="4.29135" fill="black"/>
<rect x="-4.20807" y="130.03" width="4.29135" height="4.29135" fill="black"/>
<rect x="-4.20807" y="142.046" width="4.29135" height="4.29135" fill="black"/>
<rect x="-4.20807" y="148.053" width="4.29135" height="4.29135" fill="black"/>
<rect x="-4.20807" y="154.061" width="4.29135" height="4.29135" fill="black"/>
<rect x="103.934" y="154.061" width="4.29135" height="4.29135" fill="black"/>
<rect x="103.934" y="160.069" width="4.29135" height="4.29135" fill="black"/>
<rect x="103.934" y="166.077" width="4.29135" height="4.29135" fill="black"/>
<rect x="103.934" y="172.085" width="4.29135" height="4.29135" fill="black"/>
<rect x="103.934" y="178.093" width="4.29135" height="4.29135" fill="black"/>
<rect x="103.934" y="184.101" width="4.29135" height="4.29135" fill="black"/>
<rect x="103.934" y="190.109" width="4.29135" height="4.29135" fill="black"/>
<rect x="103.934" y="196.116" width="4.29135" height="4.29135" fill="black"/>
<rect x="103.934" y="202.124" width="4.29135" height="4.29135" fill="black"/>
<rect x="103.934" y="208.132" width="4.29135" height="4.29135" fill="black"/>
<rect x="103.934" y="214.14" width="4.29135" height="4.29135" fill="black"/>
<rect x="103.934" y="220.148" width="4.29135" height="4.29135" fill="black"/>
<rect x="103.934" y="226.156" width="4.29135" height="4.29135" fill="black"/>
<rect x="103.934" y="232.164" width="4.29135" height="4.29135" fill="black"/>
<rect x="103.934" y="238.172" width="4.29135" height="4.29135" fill="black"/>
<rect x="103.934" y="244.179" width="4.29135" height="4.29135" fill="black"/>
<rect x="103.934" y="250.188" width="4.29135" height="4.29135" fill="black"/>
<rect x="85.9104" y="172.085" width="4.29135" height="4.29135" fill="black"/>
<rect x="85.9104" y="178.093" width="4.29135" height="4.29135" fill="black"/>
<rect x="85.9104" y="166.077" width="4.29135" height="4.29135" fill="black"/>
<rect x="85.9104" y="184.101" width="4.29135" height="4.29135" fill="black"/>
<rect x="85.9104" y="190.109" width="4.29135" height="4.29135" fill="black"/>
<rect x="85.9104" y="196.116" width="4.29135" height="4.29135" fill="black"/>
<rect x="85.9104" y="208.132" width="4.29135" height="4.29135" fill="black"/>
<rect x="85.9104" y="202.124" width="4.29135" height="4.29135" fill="black"/>
<rect x="-4.20807" y="160.069" width="4.29135" height="4.29135" fill="black"/>
<rect x="-4.20807" y="166.077" width="4.29135" height="4.29135" fill="black"/>
<rect x="-4.20807" y="172.085" width="4.29135" height="4.29135" fill="black"/>
<rect x="-4.20807" y="178.093" width="4.29135" height="4.29135" fill="black"/>
<rect x="-4.20807" y="184.101" width="4.29135" height="4.29135" fill="black"/>
<rect x="-4.20807" y="190.109" width="4.29135" height="4.29135" fill="black"/>
<rect x="-4.20807" y="196.116" width="4.29135" height="4.29135" fill="black"/>
<rect x="-4.20807" y="202.124" width="4.29135" height="4.29135" fill="black"/>
<rect x="-4.20807" y="208.132" width="4.29135" height="4.29135" fill="black"/>
<rect x="-4.20807" y="214.14" width="4.29135" height="4.29135" fill="black"/>
<rect x="-4.20807" y="220.148" width="4.29135" height="4.29135" fill="black"/>
<rect x="-4.20807" y="226.156" width="4.29135" height="4.29135" fill="black"/>
<rect x="-4.20807" y="232.164" width="4.29135" height="4.29135" fill="black"/>
<rect x="-4.20807" y="238.172" width="4.29135" height="4.29135" fill="black"/>
<rect x="-4.20807" y="244.179" width="4.29135" height="4.29135" fill="black"/>
<rect x="-4.20807" y="250.188" width="4.29135" height="4.29135" fill="black"/>
<rect x="79.9025" y="136.037" width="4.29135" height="4.29135" fill="black"/>
<rect x="79.9025" y="93.9824" width="4.29135" height="4.29135" fill="black"/>
<rect x="79.9025" y="99.9902" width="4.29135" height="4.29135" fill="black"/>
<rect x="79.9025" y="105.998" width="4.29135" height="4.29135" fill="black"/>
<rect x="79.9025" y="112.006" width="4.29135" height="4.29135" fill="black"/>
<rect x="79.9025" y="118.014" width="4.29135" height="4.29135" fill="black"/>
<rect x="79.9025" y="124.022" width="4.29135" height="4.29135" fill="black"/>
<rect x="79.9025" y="130.03" width="4.29135" height="4.29135" fill="black"/>
<rect x="79.9025" y="142.046" width="4.29135" height="4.29135" fill="black"/>
<rect x="79.9025" y="148.053" width="4.29135" height="4.29135" fill="black"/>
<rect x="36.9891" y="62.2263" width="4.29135" height="4.29135" fill="black"/>
<rect x="37.8473" y="136.037" width="4.29135" height="4.29135" fill="black"/>
<rect x="37.8473" y="87.9744" width="4.29135" height="4.29135" fill="black"/>
<rect x="37.8473" y="93.9824" width="4.29135" height="4.29135" fill="black"/>
<rect x="37.8473" y="99.9902" width="4.29135" height="4.29135" fill="black"/>
<rect x="37.8473" y="105.998" width="4.29135" height="4.29135" fill="black"/>
<rect x="37.8473" y="112.006" width="4.29135" height="4.29135" fill="black"/>
<rect x="37.8473" y="118.014" width="4.29135" height="4.29135" fill="black"/>
<rect x="13.8158" y="136.037" width="4.29135" height="4.29135" fill="black"/>
<rect x="37.8473" y="124.022" width="4.29135" height="4.29135" fill="black"/>
<rect x="37.8473" y="130.03" width="4.29135" height="4.29135" fill="black"/>
<rect x="37.8473" y="142.046" width="4.29135" height="4.29135" fill="black"/>
<rect x="37.8473" y="148.053" width="4.29135" height="4.29135" fill="black"/>
<rect x="13.8158" y="99.9902" width="4.29135" height="4.29135" fill="black"/>
<rect x="13.8158" y="105.998" width="4.29135" height="4.29135" fill="black"/>
<rect x="13.8158" y="112.006" width="4.29135" height="4.29135" fill="black"/>
<rect x="1.80005" y="136.037" width="4.29135" height="4.29135" fill="black"/>
<rect x="13.8158" y="118.014" width="4.29135" height="4.29135" fill="black"/>
<rect x="13.8158" y="124.022" width="4.29135" height="4.29135" fill="black"/>
<rect x="13.8158" y="130.03" width="4.29135" height="4.29135" fill="black"/>
<rect x="13.8158" y="142.046" width="4.29135" height="4.29135" fill="black"/>
<rect x="13.8158" y="148.053" width="4.29135" height="4.29135" fill="black"/>
<rect x="13.8158" y="93.9824" width="4.29135" height="4.29135" fill="black"/>
<rect x="1.80005" y="105.998" width="4.29135" height="4.29135" fill="black"/>
<rect x="1.80005" y="112.006" width="4.29135" height="4.29135" fill="black"/>
<rect x="1.80005" y="118.014" width="4.29135" height="4.29135" fill="black"/>
<rect x="1.80005" y="124.022" width="4.29135" height="4.29135" fill="black"/>
<rect x="1.80005" y="130.03" width="4.29135" height="4.29135" fill="black"/>
<rect x="1.80005" y="142.046" width="4.29135" height="4.29135" fill="black"/>
<rect x="1.80005" y="148.053" width="4.29135" height="4.29135" fill="black"/>
<rect x="1.80005" y="160.069" width="4.29135" height="4.29135" fill="black"/>
<rect x="7.80792" y="160.069" width="4.29135" height="4.29135" fill="black"/>
<rect x="1.80005" y="166.077" width="4.29135" height="4.29135" fill="black"/>
<rect x="7.80792" y="166.077" width="4.29135" height="4.29135" fill="black"/>
<rect x="13.8158" y="166.077" width="4.29135" height="4.29135" fill="black"/>
<rect x="19.8238" y="166.077" width="4.29135" height="4.29135" fill="black"/>
<rect x="25.8316" y="166.077" width="4.29135" height="4.29135" fill="black"/>
<rect x="1.80005" y="172.085" width="4.29135" height="4.29135" fill="black"/>
<rect x="7.80792" y="172.085" width="4.29135" height="4.29135" fill="black"/>
<rect x="13.8158" y="172.085" width="4.29135" height="4.29135" fill="black"/>
<rect x="19.8238" y="172.085" width="4.29135" height="4.29135" fill="black"/>
<rect x="25.8316" y="172.085" width="4.29135" height="4.29135" fill="black"/>
<rect x="1.80005" y="154.061" width="4.29135" height="4.29135" fill="black"/>
<rect x="109.942" y="154.061" width="4.29135" height="4.29135" fill="black"/>
<rect x="109.942" y="172.085" width="4.29135" height="4.29135" fill="black"/>
<rect x="109.942" y="178.093" width="4.29135" height="4.29135" fill="black"/>
<rect x="109.942" y="160.069" width="4.29135" height="4.29135" fill="black"/>
<rect x="109.942" y="166.077" width="4.29135" height="4.29135" fill="black"/>
<rect x="109.942" y="184.101" width="4.29135" height="4.29135" fill="black"/>
<rect x="109.942" y="190.109" width="4.29135" height="4.29135" fill="black"/>
<rect x="109.942" y="208.132" width="4.29135" height="4.29135" fill="black"/>
<rect x="109.942" y="196.116" width="4.29135" height="4.29135" fill="black"/>
<rect x="109.942" y="214.14" width="4.29135" height="4.29135" fill="black"/>
<rect x="109.942" y="220.148" width="4.29135" height="4.29135" fill="black"/>
<rect x="109.942" y="226.156" width="4.29135" height="4.29135" fill="black"/>
<rect x="109.942" y="232.164" width="4.29135" height="4.29135" fill="black"/>
<rect x="109.942" y="202.124" width="4.29135" height="4.29135" fill="black"/>
<rect x="109.942" y="244.179" width="4.29135" height="4.29135" fill="black"/>
<rect x="109.942" y="238.172" width="4.29135" height="4.29135" fill="black"/>
<rect x="109.942" y="250.188" width="4.29135" height="4.29135" fill="black"/>
<rect x="115.95" y="172.085" width="4.29135" height="4.29135" fill="black"/>
<rect x="115.95" y="154.061" width="4.29135" height="4.29135" fill="black"/>
<rect x="115.95" y="178.093" width="4.29135" height="4.29135" fill="black"/>
<rect x="115.95" y="160.069" width="4.29135" height="4.29135" fill="black"/>
<rect x="115.95" y="166.077" width="4.29135" height="4.29135" fill="black"/>
<rect x="121.958" y="172.085" width="4.29135" height="4.29135" fill="black"/>
<rect x="115.95" y="184.101" width="4.29135" height="4.29135" fill="black"/>
<rect x="115.95" y="208.132" width="4.29135" height="4.29135" fill="black"/>
<rect x="115.95" y="190.109" width="4.29135" height="4.29135" fill="black"/>
<rect x="115.95" y="214.14" width="4.29135" height="4.29135" fill="black"/>
<rect x="115.95" y="220.148" width="4.29135" height="4.29135" fill="black"/>
<rect x="115.95" y="226.156" width="4.29135" height="4.29135" fill="black"/>
<rect x="115.95" y="232.164" width="4.29135" height="4.29135" fill="black"/>
<rect x="115.95" y="196.116" width="4.29135" height="4.29135" fill="black"/>
<rect x="115.95" y="244.179" width="4.29135" height="4.29135" fill="black"/>
<rect x="115.95" y="202.124" width="4.29135" height="4.29135" fill="black"/>
<rect x="115.95" y="250.188" width="4.29135" height="4.29135" fill="black"/>
<rect x="115.95" y="238.172" width="4.29135" height="4.29135" fill="black"/>
<rect x="121.958" y="178.093" width="4.29135" height="4.29135" fill="black"/>
<rect x="127.966" y="172.085" width="4.29135" height="4.29135" fill="black"/>
<rect x="184.612" y="172.085" width="4.29135" height="4.29135" fill="black"/>
<rect x="127.966" y="178.093" width="4.29135" height="4.29135" fill="black"/>
<rect x="133.974" y="178.093" width="4.29135" height="4.29135" fill="black"/>
<rect x="184.612" y="178.093" width="4.29135" height="4.29135" fill="black"/>
<rect x="121.958" y="154.061" width="4.29135" height="4.29135" fill="black"/>
<rect x="121.958" y="160.069" width="4.29135" height="4.29135" fill="black"/>
<rect x="121.958" y="166.077" width="4.29135" height="4.29135" fill="black"/>
<rect x="121.958" y="208.132" width="4.29135" height="4.29135" fill="black"/>
<rect x="121.958" y="184.101" width="4.29135" height="4.29135" fill="black"/>
<rect x="121.958" y="214.14" width="4.29135" height="4.29135" fill="black"/>
<rect x="121.958" y="220.148" width="4.29135" height="4.29135" fill="black"/>
<rect x="121.958" y="226.156" width="4.29135" height="4.29135" fill="black"/>
<rect x="121.958" y="232.164" width="4.29135" height="4.29135" fill="black"/>
<rect x="121.958" y="190.109" width="4.29135" height="4.29135" fill="black"/>
<rect x="121.958" y="244.179" width="4.29135" height="4.29135" fill="black"/>
<rect x="121.958" y="196.116" width="4.29135" height="4.29135" fill="black"/>
<rect x="121.958" y="250.188" width="4.29135" height="4.29135" fill="black"/>
<rect x="121.958" y="202.124" width="4.29135" height="4.29135" fill="black"/>
<rect x="121.958" y="238.172" width="4.29135" height="4.29135" fill="black"/>
<rect x="127.966" y="208.132" width="4.29135" height="4.29135" fill="black"/>
<rect x="127.966" y="166.077" width="4.29135" height="4.29135" fill="black"/>
<rect x="127.966" y="184.101" width="4.29135" height="4.29135" fill="black"/>
<rect x="184.612" y="184.959" width="4.29135" height="4.29135" fill="black"/>
<rect x="184.612" y="190.967" width="4.29135" height="4.29135" fill="black"/>
<rect x="184.612" y="196.975" width="4.29135" height="4.29135" fill="black"/>
<rect x="184.612" y="202.983" width="4.29135" height="4.29135" fill="black"/>
<rect x="184.612" y="208.991" width="4.29135" height="4.29135" fill="black"/>
<rect x="184.612" y="214.999" width="4.29135" height="4.29135" fill="black"/>
<rect x="184.612" y="221.006" width="4.29135" height="4.29135" fill="black"/>
<rect x="184.612" y="227.014" width="4.29135" height="4.29135" fill="black"/>
<rect x="184.612" y="233.022" width="4.29135" height="4.29135" fill="black"/>
<rect x="184.612" y="239.03" width="4.29135" height="4.29135" fill="black"/>
<rect x="184.612" y="245.038" width="4.29135" height="4.29135" fill="black"/>
<rect x="184.612" y="251.046" width="4.29135" height="4.29135" fill="black"/>
<rect x="127.966" y="214.14" width="4.29135" height="4.29135" fill="black"/>
<rect x="127.966" y="220.148" width="4.29135" height="4.29135" fill="black"/>
<rect x="127.966" y="226.156" width="4.29135" height="4.29135" fill="black"/>
<rect x="127.966" y="232.164" width="4.29135" height="4.29135" fill="black"/>
<rect x="127.966" y="190.109" width="4.29135" height="4.29135" fill="black"/>
<rect x="127.966" y="244.179" width="4.29135" height="4.29135" fill="black"/>
<rect x="127.966" y="196.116" width="4.29135" height="4.29135" fill="black"/>
<rect x="127.966" y="250.188" width="4.29135" height="4.29135" fill="black"/>
<rect x="133.974" y="208.132" width="4.29135" height="4.29135" fill="black"/>
<rect x="127.966" y="202.124" width="4.29135" height="4.29135" fill="black"/>
<rect x="127.966" y="238.172" width="4.29135" height="4.29135" fill="black"/>
<rect x="133.974" y="184.101" width="4.29135" height="4.29135" fill="black"/>
<rect x="190.619" y="184.959" width="4.29135" height="4.29135" fill="black"/>
<rect x="190.619" y="190.967" width="4.29135" height="4.29135" fill="black"/>
<rect x="190.619" y="196.975" width="4.29135" height="4.29135" fill="black"/>
<rect x="190.619" y="202.983" width="4.29135" height="4.29135" fill="black"/>
<rect x="190.619" y="208.991" width="4.29135" height="4.29135" fill="black"/>
<rect x="196.628" y="208.991" width="4.29135" height="4.29135" fill="black"/>
<rect x="178.604" y="208.991" width="4.29135" height="4.29135" fill="black"/>
<rect x="190.619" y="214.999" width="4.29135" height="4.29135" fill="black"/>
<rect x="196.628" y="214.999" width="4.29135" height="4.29135" fill="black"/>
<rect x="178.604" y="214.999" width="4.29135" height="4.29135" fill="black"/>
<rect x="190.619" y="221.006" width="4.29135" height="4.29135" fill="black"/>
<rect x="196.628" y="221.006" width="4.29135" height="4.29135" fill="black"/>
<rect x="178.604" y="221.006" width="4.29135" height="4.29135" fill="black"/>
<rect x="190.619" y="227.014" width="4.29135" height="4.29135" fill="black"/>
<rect x="196.628" y="227.014" width="4.29135" height="4.29135" fill="black"/>
<rect x="178.604" y="227.014" width="4.29135" height="4.29135" fill="black"/>
<rect x="172.596" y="227.014" width="4.29135" height="4.29135" fill="black"/>
<rect x="190.619" y="233.022" width="4.29135" height="4.29135" fill="black"/>
<rect x="190.619" y="245.038" width="4.29135" height="4.29135" fill="black"/>
<rect x="190.619" y="251.046" width="4.29135" height="4.29135" fill="black"/>
<rect x="190.619" y="239.03" width="4.29135" height="4.29135" fill="black"/>
<rect x="196.628" y="245.038" width="4.29135" height="4.29135" fill="black"/>
<rect x="196.628" y="233.022" width="4.29135" height="4.29135" fill="black"/>
<rect x="196.628" y="251.046" width="4.29135" height="4.29135" fill="black"/>
<rect x="196.628" y="239.03" width="4.29135" height="4.29135" fill="black"/>
<rect x="178.604" y="245.038" width="4.29135" height="4.29135" fill="black"/>
<rect x="178.604" y="233.022" width="4.29135" height="4.29135" fill="black"/>
<rect x="178.604" y="251.046" width="4.29135" height="4.29135" fill="black"/>
<rect x="172.596" y="245.038" width="4.29135" height="4.29135" fill="black"/>
<rect x="166.588" y="245.038" width="4.29135" height="4.29135" fill="black"/>
<rect x="172.596" y="251.046" width="4.29135" height="4.29135" fill="black"/>
<rect x="166.588" y="251.046" width="4.29135" height="4.29135" fill="black"/>
<rect x="178.604" y="239.03" width="4.29135" height="4.29135" fill="black"/>
<rect x="172.596" y="233.022" width="4.29135" height="4.29135" fill="black"/>
<rect x="172.596" y="239.03" width="4.29135" height="4.29135" fill="black"/>
<rect x="133.974" y="214.14" width="4.29135" height="4.29135" fill="black"/>
<rect x="139.982" y="208.132" width="4.29135" height="4.29135" fill="black"/>
<rect x="133.974" y="190.109" width="4.29135" height="4.29135" fill="black"/>
<rect x="133.974" y="220.148" width="4.29135" height="4.29135" fill="black"/>
<rect x="145.989" y="208.132" width="4.29135" height="4.29135" fill="black"/>
<rect x="139.982" y="214.14" width="4.29135" height="4.29135" fill="black"/>
<rect x="133.974" y="226.156" width="4.29135" height="4.29135" fill="black"/>
<rect x="133.974" y="196.116" width="4.29135" height="4.29135" fill="black"/>
<rect x="139.982" y="220.148" width="4.29135" height="4.29135" fill="black"/>
<rect x="133.974" y="232.164" width="4.29135" height="4.29135" fill="black"/>
<rect x="145.989" y="214.14" width="4.29135" height="4.29135" fill="black"/>
<rect x="139.982" y="226.156" width="4.29135" height="4.29135" fill="black"/>
<rect x="145.989" y="220.148" width="4.29135" height="4.29135" fill="black"/>
<rect x="133.974" y="244.179" width="4.29135" height="4.29135" fill="black"/>
<rect x="139.982" y="232.164" width="4.29135" height="4.29135" fill="black"/>
<rect x="145.989" y="226.156" width="4.29135" height="4.29135" fill="black"/>
<rect x="133.974" y="250.188" width="4.29135" height="4.29135" fill="black"/>
<rect x="145.989" y="232.164" width="4.29135" height="4.29135" fill="black"/>
<rect x="133.974" y="202.124" width="4.29135" height="4.29135" fill="black"/>
<rect x="139.982" y="244.179" width="4.29135" height="4.29135" fill="black"/>
<rect x="133.974" y="238.172" width="4.29135" height="4.29135" fill="black"/>
<rect x="139.982" y="250.188" width="4.29135" height="4.29135" fill="black"/>
<rect x="139.982" y="190.109" width="4.29135" height="4.29135" fill="black"/>
<rect x="139.982" y="196.116" width="4.29135" height="4.29135" fill="black"/>
<rect x="139.982" y="202.124" width="4.29135" height="4.29135" fill="black"/>
<rect x="139.982" y="238.172" width="4.29135" height="4.29135" fill="black"/>
<rect x="145.989" y="202.124" width="4.29135" height="4.29135" fill="black"/>
<rect x="145.989" y="238.172" width="4.29135" height="4.29135" fill="black"/>
<rect x="145.989" y="244.179" width="4.29135" height="4.29135" fill="black"/>
<rect x="1.80005" y="178.093" width="4.29135" height="4.29135" fill="black"/>
<rect x="1.80005" y="190.109" width="4.29135" height="4.29135" fill="black"/>
<rect x="1.80005" y="196.116" width="4.29135" height="4.29135" fill="black"/>
<rect x="1.80005" y="202.124" width="4.29135" height="4.29135" fill="black"/>
<rect x="1.80005" y="208.132" width="4.29135" height="4.29135" fill="black"/>
<rect x="1.80005" y="184.101" width="4.29135" height="4.29135" fill="black"/>
<rect x="1.80005" y="214.14" width="4.29135" height="4.29135" fill="black"/>
<rect x="1.80005" y="226.156" width="4.29135" height="4.29135" fill="black"/>
<rect x="1.80005" y="232.164" width="4.29135" height="4.29135" fill="black"/>
<rect x="1.80005" y="238.172" width="4.29135" height="4.29135" fill="black"/>
<rect x="1.80005" y="220.148" width="4.29135" height="4.29135" fill="black"/>
<rect x="1.80005" y="250.188" width="4.29135" height="4.29135" fill="black"/>
<rect x="1.80005" y="244.179" width="4.29135" height="4.29135" fill="black"/>
<rect x="7.80792" y="190.109" width="4.29135" height="4.29135" fill="black"/>
<rect x="7.80792" y="178.093" width="4.29135" height="4.29135" fill="black"/>
<rect x="7.80792" y="196.116" width="4.29135" height="4.29135" fill="black"/>
<rect x="7.80792" y="202.124" width="4.29135" height="4.29135" fill="black"/>
<rect x="7.80792" y="208.132" width="4.29135" height="4.29135" fill="black"/>
<rect x="7.80792" y="184.101" width="4.29135" height="4.29135" fill="black"/>
<rect x="13.8158" y="190.109" width="4.29135" height="4.29135" fill="black"/>
<rect x="7.80792" y="226.156" width="4.29135" height="4.29135" fill="black"/>
<rect x="7.80792" y="232.164" width="4.29135" height="4.29135" fill="black"/>
<rect x="7.80792" y="238.172" width="4.29135" height="4.29135" fill="black"/>
<rect x="7.80792" y="214.14" width="4.29135" height="4.29135" fill="black"/>
<rect x="7.80792" y="250.188" width="4.29135" height="4.29135" fill="black"/>
<rect x="7.80792" y="220.148" width="4.29135" height="4.29135" fill="black"/>
<rect x="7.80792" y="244.179" width="4.29135" height="4.29135" fill="black"/>
<rect x="13.8158" y="196.116" width="4.29135" height="4.29135" fill="black"/>
<rect x="13.8158" y="202.124" width="4.29135" height="4.29135" fill="black"/>
<rect x="13.8158" y="208.132" width="4.29135" height="4.29135" fill="black"/>
<rect x="13.8158" y="178.093" width="4.29135" height="4.29135" fill="black"/>
<rect x="19.8238" y="190.109" width="4.29135" height="4.29135" fill="black"/>
<rect x="13.8158" y="226.156" width="4.29135" height="4.29135" fill="black"/>
<rect x="13.8158" y="232.164" width="4.29135" height="4.29135" fill="black"/>
<rect x="13.8158" y="238.172" width="4.29135" height="4.29135" fill="black"/>
<rect x="13.8158" y="184.101" width="4.29135" height="4.29135" fill="black"/>
<rect x="13.8158" y="250.188" width="4.29135" height="4.29135" fill="black"/>
<rect x="13.8158" y="214.14" width="4.29135" height="4.29135" fill="black"/>
<rect x="13.8158" y="220.148" width="4.29135" height="4.29135" fill="black"/>
<rect x="13.8158" y="244.179" width="4.29135" height="4.29135" fill="black"/>
<rect x="19.8238" y="196.116" width="4.29135" height="4.29135" fill="black"/>
<rect x="25.8316" y="190.109" width="4.29135" height="4.29135" fill="black"/>
<rect x="19.8238" y="202.124" width="4.29135" height="4.29135" fill="black"/>
<rect x="19.8238" y="208.132" width="4.29135" height="4.29135" fill="black"/>
<rect x="19.8238" y="178.093" width="4.29135" height="4.29135" fill="black"/>
<rect x="19.8238" y="184.101" width="4.29135" height="4.29135" fill="black"/>
<rect x="19.8238" y="226.156" width="4.29135" height="4.29135" fill="black"/>
<rect x="19.8238" y="232.164" width="4.29135" height="4.29135" fill="black"/>
<rect x="19.8238" y="238.172" width="4.29135" height="4.29135" fill="black"/>
<rect x="25.8316" y="196.116" width="4.29135" height="4.29135" fill="black"/>
<rect x="19.8238" y="250.188" width="4.29135" height="4.29135" fill="black"/>
<rect x="31.8394" y="190.109" width="4.29135" height="4.29135" fill="black"/>
<rect x="19.8238" y="214.14" width="4.29135" height="4.29135" fill="black"/>
<rect x="19.8238" y="220.148" width="4.29135" height="4.29135" fill="black"/>
<rect x="19.8238" y="244.179" width="4.29135" height="4.29135" fill="black"/>
<rect x="31.8394" y="196.116" width="4.29135" height="4.29135" fill="black"/>
<rect x="25.8316" y="202.124" width="4.29135" height="4.29135" fill="black"/>
<rect x="37.8473" y="196.116" width="4.29135" height="4.29135" fill="black"/>
<rect x="25.8316" y="178.093" width="4.29135" height="4.29135" fill="black"/>
<rect x="31.8394" y="202.124" width="4.29135" height="4.29135" fill="black"/>
<rect x="25.8316" y="208.132" width="4.29135" height="4.29135" fill="black"/>
<rect x="37.8473" y="202.124" width="4.29135" height="4.29135" fill="black"/>
<rect x="31.8394" y="208.132" width="4.29135" height="4.29135" fill="black"/>
<rect x="37.8473" y="208.132" width="4.29135" height="4.29135" fill="black"/>
<rect x="25.8316" y="226.156" width="4.29135" height="4.29135" fill="black"/>
<rect x="25.8316" y="232.164" width="4.29135" height="4.29135" fill="black"/>
<rect x="25.8316" y="238.172" width="4.29135" height="4.29135" fill="black"/>
<rect x="25.8316" y="250.188" width="4.29135" height="4.29135" fill="black"/>
<rect x="25.8316" y="184.101" width="4.29135" height="4.29135" fill="black"/>
<rect x="25.8316" y="214.14" width="4.29135" height="4.29135" fill="black"/>
<rect x="31.8394" y="226.156" width="4.29135" height="4.29135" fill="black"/>
<rect x="25.8316" y="220.148" width="4.29135" height="4.29135" fill="black"/>
<rect x="25.8316" y="244.179" width="4.29135" height="4.29135" fill="black"/>
<rect x="31.8394" y="232.164" width="4.29135" height="4.29135" fill="black"/>
<rect x="37.8473" y="226.156" width="4.29135" height="4.29135" fill="black"/>
<rect x="31.8394" y="178.093" width="4.29135" height="4.29135" fill="black"/>
<rect x="31.8394" y="238.172" width="4.29135" height="4.29135" fill="black"/>
<rect x="37.8473" y="232.164" width="4.29135" height="4.29135" fill="black"/>
<rect x="31.8394" y="184.101" width="4.29135" height="4.29135" fill="black"/>
<rect x="31.8394" y="250.188" width="4.29135" height="4.29135" fill="black"/>
<rect x="37.8473" y="238.172" width="4.29135" height="4.29135" fill="black"/>
<rect x="43.8552" y="226.156" width="4.29135" height="4.29135" fill="black"/>
<rect x="43.8552" y="232.164" width="4.29135" height="4.29135" fill="black"/>
<rect x="37.8473" y="250.188" width="4.29135" height="4.29135" fill="black"/>
<rect x="55.8711" y="251.046" width="4.29135" height="4.29135" fill="black"/>
<rect x="31.8394" y="214.14" width="4.29135" height="4.29135" fill="black"/>
<rect x="31.8394" y="220.148" width="4.29135" height="4.29135" fill="black"/>
<rect x="31.8394" y="244.179" width="4.29135" height="4.29135" fill="black"/>
<rect x="37.8473" y="214.14" width="4.29135" height="4.29135" fill="black"/>
<rect x="37.8473" y="220.148" width="4.29135" height="4.29135" fill="black"/>
<rect x="37.8473" y="244.179" width="4.29135" height="4.29135" fill="black"/>
<rect x="55.8711" y="245.038" width="4.29135" height="4.29135" fill="black"/>
<rect x="43.8552" y="214.14" width="4.29135" height="4.29135" fill="black"/>
<rect x="43.8552" y="220.148" width="4.29135" height="4.29135" fill="black"/>
<rect x="43.8552" y="238.172" width="4.29135" height="4.29135" fill="black"/>
<rect x="1.80005" y="99.9902" width="4.29135" height="4.29135" fill="black"/>
<rect x="85.9104" y="136.037" width="4.29135" height="4.29135" fill="black"/>
<rect x="97.9264" y="172.085" width="4.29135" height="4.29135" fill="black"/>
<rect x="97.9264" y="178.093" width="4.29135" height="4.29135" fill="black"/>
<rect x="91.9184" y="172.085" width="4.29135" height="4.29135" fill="black"/>
<rect x="91.9184" y="178.093" width="4.29135" height="4.29135" fill="black"/>
<rect x="97.9264" y="208.132" width="4.29135" height="4.29135" fill="black"/>
<rect x="79.9025" y="178.093" width="4.29135" height="4.29135" fill="black"/>
<rect x="79.9025" y="172.085" width="4.29135" height="4.29135" fill="black"/>
<rect x="97.9264" y="214.14" width="4.29135" height="4.29135" fill="black"/>
<rect x="97.9264" y="220.148" width="4.29135" height="4.29135" fill="black"/>
<rect x="97.9264" y="154.061" width="4.29135" height="4.29135" fill="black"/>
<rect x="97.9264" y="226.156" width="4.29135" height="4.29135" fill="black"/>
<rect x="97.9264" y="232.164" width="4.29135" height="4.29135" fill="black"/>
<rect x="97.9264" y="166.077" width="4.29135" height="4.29135" fill="black"/>
<rect x="97.9264" y="184.101" width="4.29135" height="4.29135" fill="black"/>
<rect x="91.9184" y="208.132" width="4.29135" height="4.29135" fill="black"/>
<rect x="97.9264" y="190.109" width="4.29135" height="4.29135" fill="black"/>
<rect x="91.9184" y="214.14" width="4.29135" height="4.29135" fill="black"/>
<rect x="91.9184" y="220.148" width="4.29135" height="4.29135" fill="black"/>
<rect x="97.9264" y="196.116" width="4.29135" height="4.29135" fill="black"/>
<rect x="97.9264" y="202.124" width="4.29135" height="4.29135" fill="black"/>
<rect x="97.9264" y="238.172" width="4.29135" height="4.29135" fill="black"/>
<rect x="97.9264" y="160.069" width="4.29135" height="4.29135" fill="black"/>
<rect x="91.9184" y="166.077" width="4.29135" height="4.29135" fill="black"/>
<rect x="91.9184" y="184.101" width="4.29135" height="4.29135" fill="black"/>
<rect x="91.9184" y="190.109" width="4.29135" height="4.29135" fill="black"/>
<rect x="91.9184" y="196.116" width="4.29135" height="4.29135" fill="black"/>
<rect x="91.9184" y="202.124" width="4.29135" height="4.29135" fill="black"/>
<rect x="91.9184" y="226.156" width="4.29135" height="4.29135" fill="black"/>
<rect x="79.9025" y="166.077" width="4.29135" height="4.29135" fill="black"/>
<rect x="79.9025" y="184.101" width="4.29135" height="4.29135" fill="black"/>
<rect x="91.9184" y="160.069" width="4.29135" height="4.29135" fill="black"/>
<rect x="74.7529" y="166.077" width="4.29135" height="4.29135" fill="black"/>
<rect x="85.9104" y="93.9824" width="4.29135" height="4.29135" fill="black"/>
<rect x="85.9104" y="99.9902" width="4.29135" height="4.29135" fill="black"/>
<rect x="85.9104" y="105.998" width="4.29135" height="4.29135" fill="black"/>
<rect x="43.8552" y="136.037" width="4.29135" height="4.29135" fill="black"/>
<rect x="85.9104" y="112.006" width="4.29135" height="4.29135" fill="black"/>
<rect x="85.9104" y="118.014" width="4.29135" height="4.29135" fill="black"/>
<rect x="85.9104" y="124.022" width="4.29135" height="4.29135" fill="black"/>
<rect x="85.9104" y="130.03" width="4.29135" height="4.29135" fill="black"/>
<rect x="85.9104" y="142.046" width="4.29135" height="4.29135" fill="black"/>
<rect x="85.9104" y="148.053" width="4.29135" height="4.29135" fill="black"/>
<rect x="43.8552" y="62.2263" width="4.29135" height="4.29135" fill="black"/>
<rect x="43.8552" y="87.9744" width="4.29135" height="4.29135" fill="black"/>
<rect x="19.8238" y="136.037" width="4.29135" height="4.29135" fill="black"/>
<rect x="43.8552" y="93.9824" width="4.29135" height="4.29135" fill="black"/>
<rect x="43.8552" y="99.9902" width="4.29135" height="4.29135" fill="black"/>
<rect x="43.8552" y="105.998" width="4.29135" height="4.29135" fill="black"/>
<rect x="43.8552" y="112.006" width="4.29135" height="4.29135" fill="black"/>
<rect x="43.8552" y="118.014" width="4.29135" height="4.29135" fill="black"/>
<rect x="43.8552" y="124.022" width="4.29135" height="4.29135" fill="black"/>
<rect x="43.8552" y="130.03" width="4.29135" height="4.29135" fill="black"/>
<rect x="91.9184" y="136.037" width="4.29135" height="4.29135" fill="black"/>
<rect x="43.8552" y="142.046" width="4.29135" height="4.29135" fill="black"/>
<rect x="43.8552" y="148.053" width="4.29135" height="4.29135" fill="black"/>
<rect x="19.8238" y="93.9824" width="4.29135" height="4.29135" fill="black"/>
<rect x="19.8238" y="99.9902" width="4.29135" height="4.29135" fill="black"/>
<rect x="19.8238" y="105.998" width="4.29135" height="4.29135" fill="black"/>
<rect x="19.8238" y="112.006" width="4.29135" height="4.29135" fill="black"/>
<rect x="19.8238" y="118.014" width="4.29135" height="4.29135" fill="black"/>
<rect x="103.934" y="136.037" width="4.29135" height="4.29135" fill="black"/>
<rect x="19.8238" y="124.022" width="4.29135" height="4.29135" fill="black"/>
<rect x="19.8238" y="130.03" width="4.29135" height="4.29135" fill="black"/>
<rect x="19.8238" y="142.046" width="4.29135" height="4.29135" fill="black"/>
<rect x="19.8238" y="148.053" width="4.29135" height="4.29135" fill="black"/>
<rect x="91.9184" y="93.9824" width="4.29135" height="4.29135" fill="black"/>
<rect x="91.9184" y="99.9902" width="4.29135" height="4.29135" fill="black"/>
<rect x="115.95" y="136.037" width="4.29135" height="4.29135" fill="black"/>
<rect x="91.9184" y="105.998" width="4.29135" height="4.29135" fill="black"/>
<rect x="91.9184" y="112.006" width="4.29135" height="4.29135" fill="black"/>
<rect x="91.9184" y="118.014" width="4.29135" height="4.29135" fill="black"/>
<rect x="91.9184" y="124.022" width="4.29135" height="4.29135" fill="black"/>
<rect x="127.966" y="136.037" width="4.29135" height="4.29135" fill="black"/>
<rect x="91.9184" y="130.03" width="4.29135" height="4.29135" fill="black"/>
<rect x="91.9184" y="142.046" width="4.29135" height="4.29135" fill="black"/>
<rect x="91.9184" y="148.053" width="4.29135" height="4.29135" fill="black"/>
<rect x="103.934" y="99.9902" width="4.29135" height="4.29135" fill="black"/>
<rect x="103.934" y="105.998" width="4.29135" height="4.29135" fill="black"/>
<rect x="103.934" y="112.006" width="4.29135" height="4.29135" fill="black"/>
<rect x="103.934" y="118.014" width="4.29135" height="4.29135" fill="black"/>
<rect x="103.934" y="124.022" width="4.29135" height="4.29135" fill="black"/>
<rect x="103.934" y="130.03" width="4.29135" height="4.29135" fill="black"/>
<rect x="103.934" y="142.046" width="4.29135" height="4.29135" fill="black"/>
<rect x="103.934" y="148.053" width="4.29135" height="4.29135" fill="black"/>
<rect x="49.8632" y="136.037" width="4.29135" height="4.29135" fill="black"/>
<rect x="115.95" y="105.998" width="4.29135" height="4.29135" fill="black"/>
<rect x="115.95" y="112.006" width="4.29135" height="4.29135" fill="black"/>
<rect x="115.95" y="118.014" width="4.29135" height="4.29135" fill="black"/>
<rect x="115.95" y="124.022" width="4.29135" height="4.29135" fill="black"/>
<rect x="115.95" y="130.03" width="4.29135" height="4.29135" fill="black"/>
<rect x="115.95" y="142.046" width="4.29135" height="4.29135" fill="black"/>
<rect x="115.95" y="148.053" width="4.29135" height="4.29135" fill="black"/>
<rect x="127.966" y="112.006" width="4.29135" height="4.29135" fill="black"/>
<rect x="25.8316" y="136.037" width="4.29135" height="4.29135" fill="black"/>
<rect x="127.966" y="118.014" width="4.29135" height="4.29135" fill="black"/>
<rect x="127.966" y="124.022" width="4.29135" height="4.29135" fill="black"/>
<rect x="127.966" y="130.03" width="4.29135" height="4.29135" fill="black"/>
<rect x="49.8632" y="62.2263" width="4.29135" height="4.29135" fill="black"/>
<rect x="49.8632" y="87.9744" width="4.29135" height="4.29135" fill="black"/>
<rect x="49.8632" y="93.9824" width="4.29135" height="4.29135" fill="black"/>
<rect x="97.9264" y="136.037" width="4.29135" height="4.29135" fill="black"/>
<rect x="49.8632" y="99.9902" width="4.29135" height="4.29135" fill="black"/>
<rect x="49.8632" y="105.998" width="4.29135" height="4.29135" fill="black"/>
<rect x="49.8632" y="112.006" width="4.29135" height="4.29135" fill="black"/>
<rect x="49.8632" y="118.014" width="4.29135" height="4.29135" fill="black"/>
<rect x="49.8632" y="124.022" width="4.29135" height="4.29135" fill="black"/>
<rect x="49.8632" y="130.03" width="4.29135" height="4.29135" fill="black"/>
<rect x="109.942" y="136.037" width="4.29135" height="4.29135" fill="black"/>
<rect x="49.8632" y="142.046" width="4.29135" height="4.29135" fill="black"/>
<rect x="49.8632" y="148.053" width="4.29135" height="4.29135" fill="black"/>
<rect x="25.8316" y="93.9824" width="4.29135" height="4.29135" fill="black"/>
<rect x="25.8316" y="99.9902" width="4.29135" height="4.29135" fill="black"/>
<rect x="25.8316" y="105.998" width="4.29135" height="4.29135" fill="black"/>
<rect x="121.958" y="136.037" width="4.29135" height="4.29135" fill="black"/>
<rect x="25.8316" y="112.006" width="4.29135" height="4.29135" fill="black"/>
<rect x="25.8316" y="118.014" width="4.29135" height="4.29135" fill="black"/>
<rect x="25.8316" y="124.022" width="4.29135" height="4.29135" fill="black"/>
<rect x="25.8316" y="130.03" width="4.29135" height="4.29135" fill="black"/>
<rect x="25.8316" y="142.046" width="4.29135" height="4.29135" fill="black"/>
<rect x="25.8316" y="148.053" width="4.29135" height="4.29135" fill="black"/>
<rect x="97.9264" y="93.9824" width="4.29135" height="4.29135" fill="black"/>
<rect x="97.9264" y="99.9902" width="4.29135" height="4.29135" fill="black"/>
<rect x="97.9264" y="105.998" width="4.29135" height="4.29135" fill="black"/>
<rect x="97.9264" y="112.006" width="4.29135" height="4.29135" fill="black"/>
<rect x="97.9264" y="118.014" width="4.29135" height="4.29135" fill="black"/>
<rect x="97.9264" y="124.022" width="4.29135" height="4.29135" fill="black"/>
<rect x="97.9264" y="130.03" width="4.29135" height="4.29135" fill="black"/>
<rect x="97.9264" y="142.046" width="4.29135" height="4.29135" fill="black"/>
<rect x="97.9264" y="148.053" width="4.29135" height="4.29135" fill="black"/>
<rect x="109.942" y="99.9902" width="4.29135" height="4.29135" fill="black"/>
<rect x="109.942" y="105.998" width="4.29135" height="4.29135" fill="black"/>
<rect x="109.942" y="112.006" width="4.29135" height="4.29135" fill="black"/>
<rect x="109.942" y="118.014" width="4.29135" height="4.29135" fill="black"/>
<rect x="55.8711" y="136.037" width="4.29135" height="4.29135" fill="black"/>
<rect x="109.942" y="124.022" width="4.29135" height="4.29135" fill="black"/>
<rect x="109.942" y="130.03" width="4.29135" height="4.29135" fill="black"/>
<rect x="109.942" y="142.046" width="4.29135" height="4.29135" fill="black"/>
<rect x="109.942" y="148.053" width="4.29135" height="4.29135" fill="black"/>
<rect x="121.958" y="112.006" width="4.29135" height="4.29135" fill="black"/>
<rect x="121.958" y="118.014" width="4.29135" height="4.29135" fill="black"/>
<rect x="121.958" y="124.022" width="4.29135" height="4.29135" fill="black"/>
<rect x="121.958" y="130.03" width="4.29135" height="4.29135" fill="black"/>
<rect x="121.958" y="142.046" width="4.29135" height="4.29135" fill="black"/>
<rect x="121.958" y="148.053" width="4.29135" height="4.29135" fill="black"/>
<rect x="121.958" y="105.998" width="4.29135" height="4.29135" fill="black"/>
<rect x="133.974" y="112.006" width="4.29135" height="4.29135" fill="black"/>
<rect x="133.974" y="118.014" width="4.29135" height="4.29135" fill="black"/>
<rect x="133.974" y="124.022" width="4.29135" height="4.29135" fill="black"/>
<rect x="61.8789" y="136.037" width="4.29135" height="4.29135" fill="black"/>
<rect x="139.982" y="118.014" width="4.29135" height="4.29135" fill="black"/>
<rect x="139.982" y="124.022" width="4.29135" height="4.29135" fill="black"/>
<rect x="145.989" y="124.022" width="4.29135" height="4.29135" fill="black"/>
<rect x="55.8711" y="62.2263" width="4.29135" height="4.29135" fill="black"/>
<rect x="55.8711" y="87.9744" width="4.29135" height="4.29135" fill="black"/>
<rect x="55.8711" y="93.9824" width="4.29135" height="4.29135" fill="black"/>
<rect x="67.8869" y="136.037" width="4.29135" height="4.29135" fill="black"/>
<rect x="55.8711" y="99.9902" width="4.29135" height="4.29135" fill="black"/>
<rect x="55.8711" y="105.998" width="4.29135" height="4.29135" fill="black"/>
<rect x="55.8711" y="112.006" width="4.29135" height="4.29135" fill="black"/>
<rect x="55.8711" y="118.014" width="4.29135" height="4.29135" fill="black"/>
<rect x="55.8711" y="124.022" width="4.29135" height="4.29135" fill="black"/>
<rect x="55.8711" y="130.03" width="4.29135" height="4.29135" fill="black"/>
<rect x="55.8711" y="142.046" width="4.29135" height="4.29135" fill="black"/>
<rect x="55.8711" y="148.053" width="4.29135" height="4.29135" fill="black"/>
<rect x="55.8711" y="56.2185" width="4.29135" height="4.29135" fill="black"/>
<rect x="49.8632" y="56.2185" width="4.29135" height="4.29135" fill="black"/>
<rect x="73.8948" y="136.037" width="4.29135" height="4.29135" fill="black"/>
<rect x="43.8552" y="56.2185" width="4.29135" height="4.29135" fill="black"/>
<rect x="61.8789" y="62.2263" width="4.29135" height="4.29135" fill="black"/>
<rect x="61.8789" y="87.9744" width="4.29135" height="4.29135" fill="black"/>
<rect x="61.8789" y="93.9824" width="4.29135" height="4.29135" fill="black"/>
<rect x="61.8789" y="99.9902" width="4.29135" height="4.29135" fill="black"/>
<rect x="61.8789" y="105.998" width="4.29135" height="4.29135" fill="black"/>
<rect x="61.8789" y="112.006" width="4.29135" height="4.29135" fill="black"/>
<rect x="61.8789" y="118.014" width="4.29135" height="4.29135" fill="black"/>
<rect x="61.8789" y="124.022" width="4.29135" height="4.29135" fill="black"/>
<rect x="61.8789" y="130.03" width="4.29135" height="4.29135" fill="black"/>
<rect x="61.8789" y="142.046" width="4.29135" height="4.29135" fill="black"/>
<rect x="61.8789" y="148.053" width="4.29135" height="4.29135" fill="black"/>
<rect x="67.8869" y="62.2263" width="4.29135" height="4.29135" fill="black"/>
<rect x="67.8869" y="87.9744" width="4.29135" height="4.29135" fill="black"/>
<rect x="67.8869" y="93.9824" width="4.29135" height="4.29135" fill="black"/>
<rect x="67.8869" y="99.9902" width="4.29135" height="4.29135" fill="black"/>
<rect x="67.8869" y="105.998" width="4.29135" height="4.29135" fill="black"/>
<rect x="67.8869" y="112.006" width="4.29135" height="4.29135" fill="black"/>
<rect x="67.8869" y="118.014" width="4.29135" height="4.29135" fill="black"/>
<rect x="67.8869" y="124.022" width="4.29135" height="4.29135" fill="black"/>
<rect x="67.8869" y="130.03" width="4.29135" height="4.29135" fill="black"/>
<rect x="67.8869" y="142.046" width="4.29135" height="4.29135" fill="black"/>
<rect x="67.8869" y="148.053" width="4.29135" height="4.29135" fill="black"/>
<rect x="73.8948" y="62.2263" width="4.29135" height="4.29135" fill="black"/>
<rect x="73.8948" y="87.9744" width="4.29135" height="4.29135" fill="black"/>
<rect x="73.8948" y="93.9824" width="4.29135" height="4.29135" fill="black"/>
<rect x="73.8948" y="99.9902" width="4.29135" height="4.29135" fill="black"/>
<rect x="73.8948" y="105.998" width="4.29135" height="4.29135" fill="black"/>
<rect x="73.8948" y="112.006" width="4.29135" height="4.29135" fill="black"/>
<rect x="73.8948" y="118.014" width="4.29135" height="4.29135" fill="black"/>
<rect x="73.8948" y="124.022" width="4.29135" height="4.29135" fill="black"/>
<rect x="73.8948" y="130.03" width="4.29135" height="4.29135" fill="black"/>
<rect x="73.8948" y="142.046" width="4.29135" height="4.29135" fill="black"/>
<rect x="73.8948" y="148.053" width="4.29135" height="4.29135" fill="black"/>
<rect x="79.9025" y="62.2263" width="4.29135" height="4.29135" fill="black"/>
<rect x="85.9104" y="62.2263" width="4.29135" height="4.29135" fill="black"/>
<rect x="91.9184" y="62.2263" width="4.29135" height="4.29135" fill="black"/>
<rect width="4.29135" height="4.29135" transform="matrix(-1 0 0 1 74.1512 36.4783)" fill="black"/>
<rect width="4.29135" height="4.29135" transform="matrix(-1 0 0 1 49.2612 49.3522)" fill="black"/>
<rect width="4.29135" height="4.29135" transform="matrix(-1 0 0 1 10.6398 53.6437)" fill="black"/>
<rect width="4.29135" height="4.29135" transform="matrix(-1 0 0 1 2.91528 45.061)" fill="black"/>
<rect width="4.29135" height="4.29135" transform="matrix(-1 0 0 1 0.340332 56.2185)" fill="black"/>
<rect width="4.29135" height="4.29135" transform="matrix(-1 0 0 1 197.743 78.5334)" fill="black"/>
<rect width="4.29135" height="4.29135" transform="matrix(-1 0 0 1 141.955 74.2421)" fill="black"/>
</g>
<defs>
<linearGradient id="paint0_linear_196_4792" x1="-102" y1="256" x2="437" y2="-40" gradientUnits="userSpaceOnUse">
<stop stop-color="#89DCDC"/>
<stop offset="0.461537" stop-color="#C7EB5C"/>
<stop offset="1" stop-color="#A920C1"/>
</linearGradient>
<clipPath id="clip0_196_4792">
<rect width="256" height="256" fill="white"/>
</clipPath>
</defs>
</svg>
