<svg width="256" height="256" viewBox="0 0 256 256" fill="none" xmlns="http://www.w3.org/2000/svg">
<rect width="256" height="256" fill="#DFC2DE"/>
<circle cx="123.5" cy="168.5" r="51.5" fill="#C1BA7B" fill-opacity="0.3"/>
<g clip-path="url(#clip0_39245_3523)">
<circle cx="100" cy="84" r="115" fill="#B4CDEC" fill-opacity="0.2"/>
<circle cx="79" cy="213" r="115" fill="#ECC1B4" fill-opacity="0.3"/>
<circle cx="194" cy="225" r="115" fill="#DCB4EC" fill-opacity="0.2"/>
<circle cx="191.5" cy="78.5" r="84.5" fill="#C17B7B" fill-opacity="0.1"/>
</g>
<g clip-path="url(#clip1_39245_3523)">
<path d="M51 226.619L53.3972 226.621L53.3945 229.022L51 229.021V226.619Z" fill="black"/>
<path d="M51.098 231.177L53.2956 231.175L53.2965 233.359L51 233.366V233.24C51.1393 232.664 51.0996 231.792 51.098 231.177Z" fill="black"/>
<path d="M144.678 23H146.979L146.98 24.5448L144.674 24.5472L144.678 23Z" fill="black"/>
<path d="M118.556 246C118.567 245.451 118.48 245.508 118.756 245.134C119.114 244.971 118.935 244.989 119.311 245.064C119.699 245.413 119.638 245.461 119.615 246H118.556Z" fill="black"/>
<path d="M114.099 246C114.104 245.497 114.022 245.503 114.282 245.137C114.687 244.968 114.519 244.972 114.912 245.101C115.204 245.427 115.165 245.428 115.149 246H114.099Z" fill="black"/>
<path d="M123.017 246C123.033 245.436 122.943 245.509 123.233 245.13C123.598 244.975 123.439 244.986 123.83 245.097C124.133 245.438 124.091 245.504 124.056 246H123.017Z" fill="black"/>
<path d="M127.482 246C127.495 245.509 127.416 245.507 127.671 245.146C128.021 244.98 127.845 244.998 128.213 245.071C128.589 245.416 128.535 245.474 128.517 246H127.482Z" fill="black"/>
<path d="M148.949 239.807L151.641 239.809L151.646 242.495H148.946L148.949 239.807Z" fill="black"/>
<path d="M104.36 239.808H107.055L107.054 242.492L104.354 242.494L104.36 239.808Z" fill="black"/>
<path d="M104.356 195.374L107.054 195.377L107.052 198.061L104.356 198.059L104.356 195.374Z" fill="black"/>
<path d="M104.362 235.357L107.055 235.363L107.055 238.043L104.355 238.046L104.362 235.357Z" fill="black"/>
<path d="M104.358 190.926L107.054 190.931L107.056 193.609H104.355L104.358 190.926Z" fill="black"/>
<path d="M148.952 195.374L151.642 195.377L151.641 198.061L148.945 198.06L148.952 195.374Z" fill="black"/>
<path d="M148.952 235.358L151.641 235.366L151.646 238.045L148.946 238.046L148.952 235.358Z" fill="black"/>
<path d="M104.36 142.046L107.054 142.055L107.056 144.731L104.356 144.729L104.36 142.046Z" fill="black"/>
<path d="M108.825 195.374L111.514 195.378L111.52 198.059L108.823 198.06L108.825 195.374Z" fill="black"/>
<path d="M108.828 239.808L111.516 239.81L111.519 242.491L108.821 242.494L108.828 239.808Z" fill="black"/>
<path d="M104.364 119.821L107.054 119.824L107.054 122.502L104.356 122.506L104.364 119.821Z" fill="black"/>
<path d="M104.361 124.268L107.055 124.27L107.049 126.947L104.355 126.953L104.361 124.268Z" fill="black"/>
<path d="M126.663 168.703L129.347 168.706L129.349 171.388L126.653 171.39L126.663 168.703Z" fill="black"/>
<path d="M104.363 146.494L107.054 146.498L107.054 149.178L104.357 149.177L104.363 146.494Z" fill="black"/>
<path d="M104.37 97.6104L107.053 97.6147L107.053 100.297L104.358 100.298L104.37 97.6104Z" fill="black"/>
<path d="M148.952 190.928L151.641 190.932L151.643 193.611H148.944L148.952 190.928Z" fill="black"/>
<path d="M148.953 119.822L151.641 119.825L151.644 122.504L148.946 122.506L148.953 119.822Z" fill="black"/>
<path d="M148.951 124.269L151.641 124.272V126.951L148.946 126.953L148.951 124.269Z" fill="black"/>
<path d="M82.0605 239.809L84.7466 239.81L84.7511 242.493L82.0581 242.494L82.0605 239.809Z" fill="black"/>
<path d="M126.661 217.595L129.349 217.594L129.347 220.277L126.656 220.279L126.661 217.595Z" fill="black"/>
<path d="M108.832 235.359L111.515 235.365L111.519 238.042L108.821 238.046L108.832 235.359Z" fill="black"/>
<path d="M175.719 239.809L178.407 239.811L178.41 242.489L175.716 242.493L175.719 239.809Z" fill="black"/>
<path d="M64.236 239.809L66.9234 239.811L66.9269 242.489L64.2319 242.493L64.236 239.809Z" fill="black"/>
<path d="M148.956 142.048L151.642 142.054L151.644 144.731L148.946 144.73L148.956 142.048Z" fill="black"/>
<path d="M131.125 168.704H133.802L133.808 171.389L131.116 171.39L131.125 168.704Z" fill="black"/>
<path d="M148.957 97.6132L151.639 97.6113L151.636 100.297L148.947 100.298L148.957 97.6132Z" fill="black"/>
<path d="M108.828 190.926L111.513 190.932L111.52 193.608L108.822 193.609L108.828 190.926Z" fill="black"/>
<path d="M144.496 239.808L147.176 239.809L147.175 242.494H144.486L144.496 239.808Z" fill="black"/>
<path d="M148.956 146.495L151.64 146.497L151.64 149.178L148.946 149.177L148.956 146.495Z" fill="black"/>
<path d="M126.659 239.81L129.349 239.813L129.349 242.487L126.655 242.49L126.659 239.81Z" fill="black"/>
<path d="M175.717 195.376L178.407 195.379L178.409 198.056H175.717V195.376Z" fill="black"/>
<path d="M82.0626 235.363L84.7456 235.365L84.7509 238.044L82.0576 238.045L82.0626 235.363Z" fill="black"/>
<path d="M171.261 239.808L173.944 239.81L173.943 242.491L171.254 242.493L171.261 239.808Z" fill="black"/>
<path d="M64.2373 217.595H66.9215L66.9208 220.276L64.2334 220.28L64.2373 217.595Z" fill="black"/>
<path d="M144.497 235.36L147.176 235.364L147.178 238.044L144.486 238.045L144.497 235.36Z" fill="black"/>
<path d="M193.546 235.363L196.23 235.365L196.235 238.044L193.542 238.045L193.546 235.363Z" fill="black"/>
<path d="M148.959 217.594L151.641 217.592L151.635 220.277L148.949 220.278L148.959 217.594Z" fill="black"/>
<path d="M175.721 217.595H178.404V220.274L175.717 220.28L175.721 217.595Z" fill="black"/>
<path d="M171.255 195.374L173.944 195.378L173.941 198.057L171.254 198.058L171.255 195.374Z" fill="black"/>
<path d="M77.6008 239.809L80.2871 239.811L80.2827 242.49L77.5977 242.493L77.6008 239.809Z" fill="black"/>
<path d="M104.374 213.152L107.052 213.151L107.051 215.833L104.359 215.835L104.374 213.152Z" fill="black"/>
<path d="M189.085 239.809L191.771 239.811L191.766 242.49L189.082 242.493L189.085 239.809Z" fill="black"/>
<path d="M104.373 217.594H107.052L107.048 220.276L104.36 220.279L104.373 217.594Z" fill="black"/>
<path d="M148.959 102.059L151.638 102.056L151.634 104.74L148.948 104.744L148.959 102.059Z" fill="black"/>
<path d="M104.375 102.059L107.052 102.058L107.047 104.74L104.359 104.745L104.375 102.059Z" fill="black"/>
<path d="M131.124 217.596L133.803 217.592L133.803 220.279L131.117 220.278L131.124 217.596Z" fill="black"/>
<path d="M82.0616 195.375L84.747 195.378L84.7452 198.059L82.0581 198.056L82.0616 195.375Z" fill="black"/>
<path d="M171.261 235.36L173.944 235.368L173.945 238.041L171.253 238.044L171.261 235.36Z" fill="black"/>
<path d="M144.502 26.5068L147.176 26.5091L147.174 29.1927L144.483 29.1907L144.502 26.5068Z" fill="black"/>
<path d="M171.26 190.928L173.944 190.933L173.945 193.609L171.254 193.61L171.26 190.928Z" fill="black"/>
<path d="M59.7774 235.361L62.461 235.368L62.4616 238.041L59.77 238.044L59.7774 235.361Z" fill="black"/>
<path d="M148.961 213.154L151.639 213.146L151.635 215.833L148.948 215.835L148.961 213.154Z" fill="black"/>
<path d="M126.659 190.931L129.348 190.936L129.351 193.607H126.656L126.659 190.931Z" fill="black"/>
<path d="M82.0607 190.929L84.7469 190.933L84.747 193.61L82.0581 193.608L82.0607 190.929Z" fill="black"/>
<path d="M175.721 190.93L178.407 190.935L178.409 193.608H175.716L175.721 190.93Z" fill="black"/>
<path d="M193.55 217.596L196.228 217.589V220.276H193.542L193.55 217.596Z" fill="black"/>
<path d="M82.0662 217.596L84.7433 217.589L84.7432 220.276H82.0586L82.0662 217.596Z" fill="black"/>
<path d="M77.6028 235.364L80.2879 235.369L80.2878 238.044H77.5977L77.6028 235.364Z" fill="black"/>
<path d="M126.664 235.364L129.346 235.373L129.353 238.042L126.654 238.044L126.664 235.364Z" fill="black"/>
<path d="M189.088 235.364L191.772 235.369V238.043L189.082 238.044L189.088 235.364Z" fill="black"/>
<path d="M64.242 213.152H66.925L66.9178 215.83L64.2339 215.834L64.242 213.152Z" fill="black"/>
<path d="M175.725 235.363L178.407 235.371L178.409 238.042L175.716 238.045L175.725 235.363Z" fill="black"/>
<path d="M108.832 217.594L111.51 217.595L111.51 220.275L108.826 220.28L108.832 217.594Z" fill="black"/>
<path d="M131.121 239.81L133.799 239.812L133.807 242.489L131.117 242.49L131.121 239.81Z" fill="black"/>
<path d="M175.726 213.151L178.408 213.152L178.402 215.83L175.718 215.834L175.726 213.151Z" fill="black"/>
<path d="M126.659 195.378L129.349 195.382L129.345 198.055L126.658 198.054L126.659 195.378Z" fill="black"/>
<path d="M64.2416 235.363L66.9233 235.372L66.9261 238.042L64.2324 238.044L64.2416 235.363Z" fill="black"/>
<path d="M189.091 213.154L191.773 213.146L191.767 215.834L189.087 215.832L189.091 213.154Z" fill="black"/>
<path d="M144.498 190.93L147.176 190.932L147.174 193.609H144.484L144.498 190.93Z" fill="black"/>
<path d="M77.6072 213.154L80.2882 213.147L80.2831 215.834L77.6025 215.832L77.6072 213.154Z" fill="black"/>
<path d="M77.6109 217.596L80.288 217.591L80.2788 220.279L77.6001 220.278L77.6109 217.596Z" fill="black"/>
<path d="M189.094 217.596L191.772 217.591L191.763 220.279L189.084 220.278L189.094 217.596Z" fill="black"/>
<path d="M144.501 119.822L147.176 119.824L147.175 122.504L144.488 122.505L144.501 119.822Z" fill="black"/>
<path d="M144.502 195.375L147.176 195.377L147.171 198.06L144.487 198.058L144.502 195.375Z" fill="black"/>
<path d="M86.5286 239.809L89.1977 239.81L89.2066 242.494L86.5229 242.495L86.5286 239.809Z" fill="black"/>
<path d="M144.5 124.27L147.176 124.272L147.173 126.952L144.488 126.952L144.5 124.27Z" fill="black"/>
<path d="M153.419 195.374L156.098 195.377L156.093 198.06L153.416 198.059L153.419 195.374Z" fill="black"/>
<path d="M166.807 239.808L169.478 239.81L169.477 242.491L166.794 242.494L166.807 239.808Z" fill="black"/>
<path d="M166.809 235.359L169.478 235.365L169.48 238.042L166.791 238.046L166.809 235.359Z" fill="black"/>
<path d="M104.368 115.381L107.054 115.387L107.055 118.051L104.357 118.056L104.368 115.381Z" fill="black"/>
<path d="M104.363 186.492L107.055 186.495L107.055 189.158L104.354 189.159L104.363 186.492Z" fill="black"/>
<path d="M153.422 235.359L156.093 235.365L156.103 238.043L153.416 238.045L153.422 235.359Z" fill="black"/>
<path d="M144.505 142.05L147.177 142.051L147.176 144.731L144.485 144.728L144.505 142.05Z" fill="black"/>
<path d="M108.838 213.152L111.512 213.151L111.51 215.831L108.825 215.835L108.838 213.152Z" fill="black"/>
<path d="M82.0683 213.153L84.7428 213.146L84.741 215.833L82.0596 215.832L82.0683 213.153Z" fill="black"/>
<path d="M77.6015 190.931L80.2872 190.935L80.2832 193.608H77.5986L77.6015 190.931Z" fill="black"/>
<path d="M131.129 213.153L133.804 213.147L133.798 215.834L131.118 215.832L131.129 213.153Z" fill="black"/>
<path d="M148.953 186.491L151.64 186.496L151.643 189.159L148.945 189.16L148.953 186.491Z" fill="black"/>
<path d="M77.6043 195.376L80.2869 195.379L80.2783 198.057L77.5991 198.054L77.6043 195.376Z" fill="black"/>
<path d="M148.958 115.382L151.641 115.386L151.641 118.052L148.947 118.056L148.958 115.382Z" fill="black"/>
<path d="M104.367 150.945L107.053 150.95L107.046 153.618L104.358 153.62L104.367 150.945Z" fill="black"/>
<path d="M104.359 199.829L107.054 199.832L107.055 202.494L104.357 202.491L104.359 199.829Z" fill="black"/>
<path d="M86.5314 235.36L89.1975 235.366L89.2095 238.044H86.5229L86.5314 235.36Z" fill="black"/>
<path d="M144.511 97.6141L147.175 97.6104L147.171 100.297L144.491 100.297L144.511 97.6141Z" fill="black"/>
<path d="M144.507 146.496L147.176 146.497L147.171 149.178L144.486 149.176L144.507 146.496Z" fill="black"/>
<path d="M166.806 195.374L169.477 195.378L169.476 198.058H166.798L166.806 195.374Z" fill="black"/>
<path d="M104.361 128.726L107.054 128.725L107.055 131.379L104.354 131.391L104.361 128.726Z" fill="black"/>
<path d="M166.807 190.928L169.477 190.931L169.48 193.609L166.796 193.61L166.807 190.928Z" fill="black"/>
<path d="M148.958 150.946L151.64 150.947L151.634 153.618L148.947 153.621L148.958 150.946Z" fill="black"/>
<path d="M131.128 235.364L133.799 235.371L133.807 238.043L131.116 238.044L131.128 235.364Z" fill="black"/>
<path d="M131.12 195.376L133.797 195.38L133.803 198.056L131.117 198.051L131.12 195.376Z" fill="black"/>
<path d="M148.951 128.726L151.641 128.725L151.643 131.389L148.945 131.383L148.951 128.726Z" fill="black"/>
<path d="M131.123 222.042L133.802 222.041L133.809 224.708L131.116 224.711L131.123 222.042Z" fill="black"/>
<path d="M131.124 190.931L133.799 190.936L133.804 193.607H131.117L131.124 190.931Z" fill="black"/>
<path d="M86.5295 190.928L89.1975 190.933L89.2036 193.61H86.5225L86.5295 190.928Z" fill="black"/>
<path d="M144.512 213.154L147.175 213.146L147.172 215.832L144.492 215.833L144.512 213.154Z" fill="black"/>
<path d="M104.362 182.049L107.054 182.054L107.055 184.705L104.354 184.71L104.362 182.049Z" fill="black"/>
<path d="M148.957 222.039L151.64 222.04L151.638 224.7L148.948 224.712L148.957 222.039Z" fill="black"/>
<path d="M104.363 230.925L107.054 230.937L107.055 233.585L104.354 233.591L104.363 230.925Z" fill="black"/>
<path d="M153.424 217.594L156.091 217.593L156.086 220.277L153.418 220.28L153.424 217.594Z" fill="black"/>
<path d="M148.954 199.829L151.643 199.831L151.639 202.494L148.946 202.491L148.954 199.829Z" fill="black"/>
<path d="M104.369 93.1768L107.054 93.1858L107.054 95.843L104.358 95.8435L104.369 93.1768Z" fill="black"/>
<path d="M144.497 186.494L147.176 186.492L147.177 189.16L144.485 189.159L144.497 186.494Z" fill="black"/>
<path d="M189.096 222.042L191.771 222.041L191.773 224.708L189.081 224.712L189.096 222.042Z" fill="black"/>
<path d="M77.6114 222.042L80.2871 222.041L80.2886 224.707L77.5967 224.712L77.6114 222.042Z" fill="black"/>
<path d="M162.35 239.808L165.012 239.809L165.013 242.491L162.343 242.495L162.35 239.808Z" fill="black"/>
<path d="M148.952 182.048L151.64 182.055L151.644 184.708L148.946 184.71L148.952 182.048Z" fill="black"/>
<path d="M148.953 137.611L151.643 137.622L151.641 140.274L148.945 140.277L148.953 137.611Z" fill="black"/>
<path d="M108.833 186.491L111.512 186.496L111.519 189.152L108.822 189.159L108.833 186.491Z" fill="black"/>
<path d="M86.5283 195.375L89.2003 195.377L89.1973 198.018C88.8593 198.08 86.9812 198.057 86.5229 198.057L86.5283 195.375Z" fill="black"/>
<path d="M99.9252 97.6113L102.583 97.6135L102.582 100.297L99.9087 100.298L99.9252 97.6113Z" fill="black"/>
<path d="M157.886 239.807L160.548 239.809V242.492L157.881 242.495L157.886 239.807Z" fill="black"/>
<path d="M193.549 222.04L196.228 222.039L196.23 224.702L193.542 224.71L193.549 222.04Z" fill="black"/>
<path d="M144.512 102.06L147.174 102.056L147.165 104.739L144.491 104.74L144.512 102.06Z" fill="black"/>
<path d="M82.0656 222.04L84.7436 222.039L84.7461 224.702L82.0576 224.71L82.0656 222.04Z" fill="black"/>
<path d="M162.349 195.373L165.012 195.377L165.015 198.06L162.345 198.059L162.349 195.373Z" fill="black"/>
<path d="M162.351 235.356L165.012 235.365L165.013 238.043L162.343 238.046L162.351 235.356Z" fill="black"/>
<path d="M95.457 239.808L98.1159 239.809L98.1176 242.496L95.4521 242.495L95.457 239.808Z" fill="black"/>
<path d="M90.9936 239.808L93.6518 239.81L93.6554 242.495H90.9883L90.9936 239.808Z" fill="black"/>
<path d="M171.263 186.493L173.944 186.495L173.945 189.155L171.253 189.159L171.263 186.493Z" fill="black"/>
<path d="M144.507 115.384L147.176 115.383L147.176 118.053L144.489 118.055L144.507 115.384Z" fill="black"/>
<path d="M82.0666 186.494L84.7461 186.499L84.7503 189.159L82.0571 189.16L82.0666 186.494Z" fill="black"/>
<path d="M108.825 199.829L111.513 199.832L111.518 202.487L108.823 202.49L108.825 199.829Z" fill="black"/>
<path d="M126.662 213.154L129.35 213.15L129.348 215.832L126.658 215.834C126.648 214.948 126.661 214.041 126.662 213.154Z" fill="black"/>
<path d="M157.886 195.373L160.546 195.377L160.548 198.061L157.882 198.06L157.886 195.373Z" fill="black"/>
<path d="M59.7847 217.595L62.4592 217.596L62.4552 220.276L59.7766 220.281C59.7628 219.402 59.7808 218.477 59.7847 217.595Z" fill="black"/>
<path d="M171.267 217.594L173.942 217.596L173.939 220.275L171.26 220.281C171.247 219.401 171.264 218.478 171.267 217.594Z" fill="black"/>
<path d="M104.371 155.396H107.053L107.053 158.053L104.359 158.057L104.371 155.396Z" fill="black"/>
<path d="M180.188 239.81L182.852 239.812L182.855 242.489L180.182 242.49L180.188 239.81Z" fill="black"/>
<path d="M108.83 222.039L111.511 222.041L111.504 224.705L108.825 224.711L108.83 222.039Z" fill="black"/>
<path d="M108.836 93.1748L111.512 93.1879L111.517 95.8431L108.823 95.8436L108.836 93.1748Z" fill="black"/>
<path d="M153.429 164.262L156.092 164.263L156.086 166.943L153.418 166.945L153.429 164.262Z" fill="black"/>
<path d="M99.9274 213.153L102.583 213.15L102.582 215.833L99.9092 215.836L99.9274 213.153Z" fill="black"/>
<path d="M180.189 217.594L182.851 217.595L182.846 220.276L180.183 220.28L180.189 217.594Z" fill="black"/>
<path d="M126.666 164.266L129.348 164.265L129.352 166.943L126.656 166.947C126.643 166.066 126.661 165.149 126.666 164.266Z" fill="black"/>
<path d="M113.296 195.373L115.956 195.378L115.963 198.058L113.294 198.059L113.296 195.373Z" fill="black"/>
<path d="M68.705 239.81L71.3669 239.812L71.3714 242.489L68.6987 242.49L68.705 239.81Z" fill="black"/>
<path d="M162.35 190.925L165.012 190.93L165.014 193.609H162.345L162.35 190.925Z" fill="black"/>
<path d="M73.1619 217.596L75.8208 217.593L75.8221 220.278L73.1548 220.277L73.1619 217.596Z" fill="black"/>
<path d="M122.217 168.702L124.886 168.707L124.88 171.387L122.205 171.392C122.197 170.496 122.201 169.599 122.217 168.702Z" fill="black"/>
<path d="M68.7052 217.595H71.3671L71.3617 220.277L68.6987 220.28L68.7052 217.595Z" fill="black"/>
<path d="M90.9945 235.356L93.6525 235.367L93.6564 238.045L90.9893 238.046L90.9945 235.356Z" fill="black"/>
<path d="M90.997 168.702L93.6527 168.703L93.6526 171.387L90.9897 171.393L90.997 168.702Z" fill="black"/>
<path d="M95.4574 235.356L98.1158 235.365L98.1174 238.045L95.4526 238.046L95.4574 235.356Z" fill="black"/>
<path d="M108.828 230.926L111.514 230.937L111.518 233.58L108.822 233.591L108.828 230.926Z" fill="black"/>
<path d="M157.886 190.923L160.547 190.932L160.548 193.609L157.882 193.61L157.886 190.923Z" fill="black"/>
<path d="M113.301 239.808L115.958 239.81L115.962 242.491L113.293 242.494L113.301 239.808Z" fill="black"/>
<path d="M122.214 217.594L124.887 217.595L124.878 220.276L122.21 220.281C122.184 219.411 122.208 218.47 122.214 217.594Z" fill="black"/>
<path d="M153.42 186.488L156.094 186.496L156.097 189.157L153.415 189.16L153.42 186.488Z" fill="black"/>
<path d="M171.257 199.829L173.944 199.832V202.486L171.257 202.489V199.829Z" fill="black"/>
<path d="M95.4586 195.374L98.1163 195.377L98.115 198.061L95.4526 198.06L95.4586 195.374Z" fill="black"/>
<path d="M122.211 239.81L124.887 239.812L124.884 242.487L122.209 242.49C122.189 241.62 122.208 240.685 122.211 239.81Z" fill="black"/>
<path d="M153.418 190.926L156.1 190.93C156.08 191.791 156.102 192.741 156.105 193.61H153.415L153.418 190.926Z" fill="black"/>
<path d="M108.826 182.051L111.513 182.054L111.519 184.699L108.821 184.71L108.826 182.051Z" fill="black"/>
<path d="M99.9258 164.261L102.583 164.263L102.582 166.944H99.9141L99.9258 164.261Z" fill="black"/>
<path d="M175.716 199.83L178.407 199.833V202.485L175.717 202.486L175.716 199.83Z" fill="black"/>
<path d="M153.43 213.151L156.09 213.148L156.088 215.758C155.526 215.886 154.065 215.838 153.417 215.834L153.43 213.151Z" fill="black"/>
<path d="M90.9952 195.374L93.6521 195.377L93.6509 198.06L90.9883 198.059L90.9952 195.374Z" fill="black"/>
<path d="M73.1588 239.81L75.8193 239.812L75.8233 242.489L73.1558 242.49L73.1588 239.81Z" fill="black"/>
<path d="M113.3 190.926L115.956 190.933L115.967 193.608L113.294 193.609L113.3 190.926Z" fill="black"/>
<path d="M104.361 133.172L107.055 133.178L107.055 135.82L104.354 135.823L104.361 133.172Z" fill="black"/>
<path d="M82.062 230.93L84.7457 230.936L84.7512 233.585L82.0576 233.591L82.062 230.93Z" fill="black"/>
<path d="M157.89 235.358L160.547 235.365L160.548 238.042L157.882 238.046L157.89 235.358Z" fill="black"/>
<path d="M184.643 239.81L187.303 239.812L187.308 242.488L184.64 242.491L184.643 239.81Z" fill="black"/>
<path d="M166.808 186.493H169.477L169.48 189.158L166.794 189.159L166.808 186.493Z" fill="black"/>
<path d="M193.544 230.933L196.229 230.937L196.234 233.586L193.54 233.592L193.544 230.933Z" fill="black"/>
<path d="M104.372 106.508L107.053 106.508L107.052 109.162L104.361 109.169L104.372 106.508Z" fill="black"/>
<path d="M95.4571 190.928L98.1162 190.93L98.1158 193.611L95.4517 193.61L95.4571 190.928Z" fill="black"/>
<path d="M148.959 155.397L151.639 155.395L151.635 158.052L148.948 158.057L148.959 155.397Z" fill="black"/>
<path d="M135.585 239.809L138.244 239.81L138.246 242.492L135.583 242.493L135.585 239.809Z" fill="black"/>
<path d="M153.419 239.807L156.097 239.809C156.088 240.695 156.102 241.605 156.105 242.494L153.415 242.495L153.419 239.807Z" fill="black"/>
<path d="M113.304 235.36L115.958 235.367L115.964 238.042L113.293 238.045L113.304 235.36Z" fill="black"/>
<path d="M104.367 208.726L107.053 208.729L107.053 211.376L104.358 211.381L104.367 208.726Z" fill="black"/>
<path d="M131.122 173.157L133.8 173.159L133.803 175.816L131.116 175.82L131.122 173.157Z" fill="black"/>
<path d="M140.052 239.809L142.706 239.81L142.707 242.493H140.044L140.052 239.809Z" fill="black"/>
<path d="M148.959 106.508L151.641 106.506L151.636 109.163L148.95 109.167L148.959 106.508Z" fill="black"/>
<path d="M82.0619 199.83L84.747 199.832L84.741 202.491L82.0581 202.486L82.0619 199.83Z" fill="black"/>
<path d="M117.766 168.703L120.418 168.705L120.419 171.387L117.76 171.394L117.766 168.703Z" fill="black"/>
<path d="M144.511 150.947H147.175L147.165 153.618H144.489L144.511 150.947Z" fill="black"/>
<path d="M90.9948 190.929L93.6515 190.931L93.6531 193.61H90.9878L90.9948 190.929Z" fill="black"/>
<path d="M157.893 168.702L160.546 168.704L160.54 171.386L157.885 171.394L157.893 168.702Z" fill="black"/>
<path d="M104.368 110.953L107.053 110.951L107.053 113.598L104.36 113.609L104.368 110.953Z" fill="black"/>
<path d="M144.502 128.725H147.176L147.178 131.382L144.487 131.383L144.502 128.725Z" fill="black"/>
<path d="M126.658 199.831L129.348 199.834L129.348 202.482L126.659 202.484L126.658 199.831Z" fill="black"/>
<path d="M144.515 217.596L147.175 217.591L147.167 220.277H144.493C144.496 219.383 144.503 218.489 144.515 217.596Z" fill="black"/>
<path d="M144.506 199.83L147.177 199.831L147.174 202.492L144.488 202.49L144.506 199.83Z" fill="black"/>
<path d="M140.053 235.361L142.706 235.363L142.708 238.044H140.045L140.053 235.361Z" fill="black"/>
<path d="M148.956 110.95L151.641 110.95L151.639 113.596L148.948 113.608L148.956 110.95Z" fill="black"/>
<path d="M144.514 222.039L147.175 222.04L147.176 224.701L144.491 224.71L144.514 222.039Z" fill="black"/>
<path d="M171.267 213.151H173.944L173.942 215.831L171.26 215.835C171.25 214.95 171.264 214.039 171.267 213.151Z" fill="black"/>
<path d="M82.0613 182.054L84.7457 182.055L84.7483 184.703L82.0576 184.708L82.0613 182.054Z" fill="black"/>
<path d="M77.6028 230.94L80.2876 230.938L80.2897 233.588L77.5967 233.59L77.6028 230.94Z" fill="black"/>
<path d="M189.087 230.94L191.772 230.938L191.774 233.588L189.081 233.59L189.087 230.94Z" fill="black"/>
<path d="M117.763 239.809L120.419 239.811L120.42 242.488L117.76 242.493L117.763 239.809Z" fill="black"/>
<path d="M162.357 217.594L165.01 217.595V220.275L162.349 220.279L162.357 217.594Z" fill="black"/>
<path d="M104.364 204.281L107.053 204.286L107.054 206.929H104.357L104.364 204.281Z" fill="black"/>
<path d="M108.828 208.723L111.513 208.729L111.514 211.372L108.824 211.382L108.828 208.723Z" fill="black"/>
<path d="M148.956 208.729L151.639 208.725L151.637 211.375L148.947 211.381L148.956 208.729Z" fill="black"/>
<path d="M144.503 182.052L147.176 182.055L147.178 184.71H144.486L144.503 182.052Z" fill="black"/>
<path d="M148.952 133.176L151.641 133.178L151.642 135.821L148.945 135.823L148.952 133.176Z" fill="black"/>
<path d="M180.183 222.041L182.85 222.043L182.855 224.707L180.181 224.713L180.183 222.041Z" fill="black"/>
<path d="M144.505 230.929L147.176 230.937L147.179 233.589L144.488 233.591L144.505 230.929Z" fill="black"/>
<path d="M171.262 230.936L173.944 230.94L173.945 233.584L171.251 233.591L171.262 230.936Z" fill="black"/>
<path d="M148.955 88.7446L151.643 88.7441L151.639 91.3906L148.946 91.3935L148.955 88.7446Z" fill="black"/>
<path d="M59.7778 230.936L62.4608 230.94L62.4612 233.583L59.7676 233.591L59.7778 230.936Z" fill="black"/>
<path d="M99.9055 195.374L102.584 195.377C102.59 195.905 102.672 197.733 102.444 198.06H99.9028L99.9055 195.374Z" fill="black"/>
<path d="M122.207 190.931L124.887 190.935L124.884 193.607H122.21C122.195 192.726 122.208 191.814 122.207 190.931Z" fill="black"/>
<path d="M95.4643 217.594L98.1153 217.593L98.1129 220.276L95.4556 220.278L95.4643 217.594Z" fill="black"/>
<path d="M64.234 230.936L66.9224 230.943L66.9269 233.579L64.2319 233.59L64.234 230.936Z" fill="black"/>
<path d="M126.663 177.608L129.346 177.612L129.354 180.255L126.654 180.259L126.663 177.608Z" fill="black"/>
<path d="M175.716 208.724L178.408 208.73L178.405 211.37L175.718 211.382L175.716 208.724Z" fill="black"/>
<path d="M99.9066 235.357L102.584 235.363C102.589 235.904 102.668 237.684 102.448 238.044L99.8984 238.046L99.9066 235.357Z" fill="black"/>
<path d="M126.657 182.062L129.347 182.06L129.353 184.7L126.655 184.708L126.657 182.062Z" fill="black"/>
<path d="M77.6045 208.727L80.2883 208.724L80.2828 211.38L77.6025 211.379L77.6045 208.727Z" fill="black"/>
<path d="M104.366 226.491L107.054 226.493L107.055 229.132L104.357 229.143L104.366 226.491Z" fill="black"/>
<path d="M175.718 230.936L178.406 230.943L178.41 233.579L175.716 233.59L175.718 230.936Z" fill="black"/>
<path d="M144.53 93.1788L147.176 93.1777L147.175 95.8101C146.76 95.8755 145.007 95.8436 144.488 95.8427C144.486 94.9331 144.488 94.0889 144.53 93.1788Z" fill="black"/>
<path d="M77.6045 199.831L80.2869 199.833L80.2853 202.487L77.6006 202.484L77.6045 199.831Z" fill="black"/>
<path d="M68.6999 222.041L71.3638 222.043L71.3716 224.707L68.6973 224.713L68.6999 222.041Z" fill="black"/>
<path d="M140.052 195.376L142.706 195.378L142.704 198.059L140.044 198.055L140.052 195.376Z" fill="black"/>
<path d="M122.208 213.151L124.888 213.152L124.882 215.831L122.212 215.834C122.187 214.976 122.208 214.018 122.208 213.151Z" fill="black"/>
<path d="M126.663 226.492L129.347 226.495L129.353 229.137L126.653 229.139L126.663 226.492Z" fill="black"/>
<path d="M64.2324 208.725L66.9238 208.73L66.9204 211.369L64.2344 211.381L64.2324 208.725Z" fill="black"/>
<path d="M148.954 226.489L151.642 226.493L151.641 229.131L148.947 229.141L148.954 226.489Z" fill="black"/>
<path d="M144.505 137.619L147.176 137.621L147.176 140.274L144.484 140.275L144.505 137.619Z" fill="black"/>
<path d="M73.1599 195.378L75.8193 195.382L75.8203 198.055L73.1577 198.053L73.1599 195.378Z" fill="black"/>
<path d="M166.805 199.829L169.477 199.832L169.48 202.489H166.799L166.805 199.829Z" fill="black"/>
<path d="M135.593 235.363L138.244 235.368L138.245 238.044L135.583 238.045L135.593 235.363Z" fill="black"/>
<path d="M117.763 195.375L120.418 195.379L120.419 198.056L117.761 198.057L117.763 195.375Z" fill="black"/>
<path d="M140.057 217.596L142.704 217.589V220.275L140.045 220.274L140.057 217.596Z" fill="black"/>
<path d="M117.768 217.594L120.418 217.595V220.275L117.764 220.281L117.768 217.594Z" fill="black"/>
<path d="M171.261 208.724L173.944 208.73L173.943 211.375L171.259 211.382L171.261 208.724Z" fill="black"/>
<path d="M166.812 230.933L169.478 230.937L169.481 233.588L166.789 233.593L166.812 230.933Z" fill="black"/>
<path d="M140.052 190.931L142.706 190.932L142.704 193.609L140.044 193.608L140.052 190.931Z" fill="black"/>
<path d="M166.808 182.051L169.479 182.055L169.482 184.705L166.792 184.71L166.808 182.051Z" fill="black"/>
<path d="M157.897 217.594L160.546 217.593L160.537 220.277L157.886 220.28L157.897 217.594Z" fill="black"/>
<path d="M135.586 195.378L138.244 195.38L138.239 198.059L135.583 198.054L135.586 195.378Z" fill="black"/>
<path d="M153.42 199.831H156.097L156.091 202.491L153.416 202.489L153.42 199.831Z" fill="black"/>
<path d="M113.305 217.594L115.956 217.596L115.948 220.276L113.296 220.28L113.305 217.594Z" fill="black"/>
<path d="M55.3279 230.934L57.9949 230.937L57.9968 233.587L55.3057 233.593L55.3279 230.934Z" fill="black"/>
<path d="M59.7813 226.491L62.4613 226.493L62.4617 229.136L59.7686 229.143L59.7813 226.491Z" fill="black"/>
<path d="M82.0615 208.731L84.7453 208.722L84.7413 211.373L82.0586 211.381L82.0615 208.731Z" fill="black"/>
<path d="M77.6067 226.492L80.2878 226.493L80.2897 229.139H77.5967L77.6067 226.492Z" fill="black"/>
<path d="M153.422 222.042L156.092 222.041L156.09 224.652C155.586 224.744 154.009 224.712 153.417 224.711L153.422 222.042Z" fill="black"/>
<path d="M171.264 226.491L173.944 226.493L173.946 229.136L171.252 229.143L171.264 226.491Z" fill="black"/>
<path d="M148.957 204.283L151.641 204.284L151.637 206.929H148.947L148.957 204.283Z" fill="black"/>
<path d="M122.213 235.363L124.886 235.373L124.886 238.042L122.208 238.044C122.191 237.169 122.209 236.242 122.213 235.363Z" fill="black"/>
<path d="M117.763 190.93L120.418 190.934L120.42 193.607L117.761 193.608L117.763 190.93Z" fill="black"/>
<path d="M193.545 226.494L196.229 226.492L196.234 229.135L193.54 229.14L193.545 226.494Z" fill="black"/>
<path d="M91.0032 217.595L93.6515 217.592L93.6399 220.277L90.9912 220.278L91.0032 217.595Z" fill="black"/>
<path d="M189.092 226.492L191.772 226.493L191.774 229.139H189.081L189.092 226.492Z" fill="black"/>
<path d="M153.419 230.926L156.093 230.937L156.096 233.582L153.415 233.592L153.419 230.926Z" fill="black"/>
<path d="M131.12 199.831L133.798 199.833L133.8 202.486L131.118 202.482L131.12 199.831Z" fill="black"/>
<path d="M95.472 164.261L98.1154 164.262L98.1115 166.944H95.4551L95.472 164.261Z" fill="black"/>
<path d="M82.0624 226.494L84.7452 226.492L84.7505 229.135L82.0571 229.14L82.0624 226.494Z" fill="black"/>
<path d="M153.418 182.05L156.092 182.054L156.097 184.703L153.415 184.71L153.418 182.05Z" fill="black"/>
<path d="M166.819 217.594L169.477 217.596L169.469 220.275L166.806 220.28C166.794 219.398 166.813 218.479 166.819 217.594Z" fill="black"/>
<path d="M108.826 204.28L111.512 204.287L111.516 206.923L108.824 206.929L108.826 204.28Z" fill="black"/>
<path d="M135.595 217.597L138.242 217.591L138.231 220.278H135.584L135.595 217.597Z" fill="black"/>
<path d="M153.432 93.1768L156.092 93.1849L156.094 95.8444L153.417 95.8439L153.432 93.1768Z" fill="black"/>
<path d="M157.901 164.261L160.546 164.264L160.541 166.944L157.886 166.945L157.901 164.261Z" fill="black"/>
<path d="M144.511 110.949H147.175L147.175 113.604L144.489 113.607L144.511 110.949Z" fill="black"/>
<path d="M108.829 226.491L111.513 226.493L111.517 229.127L108.823 229.143L108.829 226.491Z" fill="black"/>
<path d="M144.507 208.728L147.175 208.723L147.173 211.381H144.49L144.507 208.728Z" fill="black"/>
<path d="M135.59 190.93L138.245 190.934L138.239 193.609L135.583 193.608L135.59 190.93Z" fill="black"/>
<path d="M166.81 177.606L169.478 177.609L169.48 180.256L166.791 180.263L166.81 177.606Z" fill="black"/>
<path d="M99.9167 199.829L102.584 199.832L102.575 202.494L99.9038 202.491L99.9167 199.829Z" fill="black"/>
<path d="M86.5361 186.492L89.1979 186.495L89.2004 189.15L86.5229 189.16L86.5361 186.492Z" fill="black"/>
<path d="M91.0085 213.153L93.6501 213.146L93.6452 215.833L90.9907 215.834L91.0085 213.153Z" fill="black"/>
<path d="M171.257 204.281L173.944 204.287V206.927L171.258 206.929L171.257 204.281Z" fill="black"/>
<path d="M184.648 222.042H187.304L187.308 224.705L184.637 224.712L184.648 222.042Z" fill="black"/>
<path d="M73.1641 222.042L75.8202 222.041L75.8243 224.705L73.1528 224.712L73.1641 222.042Z" fill="black"/>
<path d="M126.659 230.943C127.526 230.922 128.472 230.942 129.345 230.942L129.353 233.584L126.653 233.59L126.659 230.943Z" fill="black"/>
<path d="M64.2349 226.493L66.9221 226.495L66.9262 229.127L64.2314 229.14L64.2349 226.493Z" fill="black"/>
<path d="M175.719 226.494L178.406 226.495L178.409 229.127L175.716 229.141L175.719 226.494Z" fill="black"/>
<path d="M86.5291 230.928L89.1981 230.938L89.2053 233.581L86.5229 233.591L86.5291 230.928Z" fill="black"/>
<path d="M126.658 204.283L129.349 204.288L129.347 206.925L126.659 206.927L126.658 204.283Z" fill="black"/>
<path d="M117.772 235.361L120.419 235.37L120.418 238.042L117.76 238.044L117.772 235.361Z" fill="black"/>
<path d="M126.663 222.041L129.347 222.042C129.353 222.931 129.35 223.819 129.339 224.708L126.654 224.714L126.663 222.041Z" fill="black"/>
<path d="M198.013 230.929L200.682 230.937L200.689 233.581L198.007 233.591L198.013 230.929Z" fill="black"/>
<path d="M86.5343 217.597L89.1936 217.591C89.2053 218.477 89.1941 219.387 89.1934 220.276L86.5249 220.277L86.5343 217.597Z" fill="black"/>
<path d="M113.3 222.039L115.956 222.042L115.96 224.706L113.295 224.712L113.3 222.039Z" fill="black"/>
<path d="M157.889 186.49L160.547 186.496L160.548 189.159L157.881 189.16L157.889 186.49Z" fill="black"/>
<path d="M162.351 186.491L165.012 186.493L165.013 189.138C164.377 189.193 163.03 189.158 162.343 189.16L162.351 186.491Z" fill="black"/>
<path d="M86.5291 199.83L89.2024 199.831L89.1907 202.488L86.5234 202.489L86.5291 199.83Z" fill="black"/>
<path d="M82.0626 204.282L84.7475 204.284L84.7406 206.929L82.0586 206.928L82.0626 204.282Z" fill="black"/>
<path d="M131.119 230.938L133.8 230.939L133.808 233.578C132.978 233.612 131.96 233.588 131.116 233.59L131.119 230.938Z" fill="black"/>
<path d="M126.656 208.733C127.519 208.709 128.478 208.73 129.349 208.73L129.347 211.373L126.659 211.38L126.656 208.733Z" fill="black"/>
<path d="M95.457 186.491H98.1156L98.1166 189.138C97.5449 189.193 96.0865 189.158 95.4512 189.16L95.457 186.491Z" fill="black"/>
<path d="M144.512 88.7412L147.177 88.7431L147.175 91.3938L144.487 91.3926L144.512 88.7412Z" fill="black"/>
<path d="M175.72 222.041L178.405 222.043C178.413 222.924 178.401 223.825 178.398 224.707L175.716 224.714L175.72 222.041Z" fill="black"/>
<path d="M64.236 222.041L66.9205 222.043C66.9293 222.924 66.9174 223.825 66.9149 224.707L64.2319 224.714L64.236 222.041Z" fill="black"/>
<path d="M131.118 182.057L133.798 182.058L133.807 184.695C132.985 184.73 131.954 184.705 131.117 184.708L131.118 182.057Z" fill="black"/>
<path d="M86.5285 182.051L89.1979 182.055L89.2026 184.7L86.5229 184.71L86.5285 182.051Z" fill="black"/>
<path d="M175.717 204.284L178.407 204.287L178.406 206.917L175.717 206.928V204.284Z" fill="black"/>
<path d="M104.406 137.605L107.054 137.622L107.057 140.276L104.356 140.275C104.352 139.455 104.317 138.401 104.406 137.605Z" fill="black"/>
<path d="M131.118 208.731L133.801 208.727L133.798 211.367C132.998 211.404 131.94 211.376 131.119 211.379L131.118 208.731Z" fill="black"/>
<path d="M144.505 133.178H147.176L147.178 135.822L144.486 135.823L144.505 133.178Z" fill="black"/>
<path d="M166.812 208.722L169.478 208.729V211.38L166.804 211.382L166.812 208.722Z" fill="black"/>
<path d="M77.6047 204.283L80.2873 204.285L80.2838 206.928L77.6016 206.927L77.6047 204.283Z" fill="black"/>
<path d="M166.82 213.151L169.478 213.152L169.476 215.831L166.805 215.835C166.794 214.955 166.814 214.036 166.82 213.151Z" fill="black"/>
<path d="M162.35 199.829L165.01 199.832L165.013 202.491L162.346 202.49L162.35 199.829Z" fill="black"/>
<path d="M99.9252 155.396L102.583 155.395L102.582 158.052L99.9092 158.057L99.9252 155.396Z" fill="black"/>
<path d="M162.353 173.154L165.011 173.158L165.013 175.811L162.346 175.824L162.353 173.154Z" fill="black"/>
<path d="M131.119 177.61H133.799L133.806 180.245C132.982 180.28 131.956 180.256 131.116 180.26L131.119 177.61Z" fill="black"/>
<path d="M99.922 208.725L102.583 208.727L102.583 211.381H99.9067L99.922 208.725Z" fill="black"/>
<path d="M135.588 222.042L138.243 222.041L138.244 224.703L135.583 224.711L135.588 222.042Z" fill="black"/>
<path d="M91.0016 186.492L93.6513 186.497L93.6563 189.159L90.9878 189.16L91.0016 186.492Z" fill="black"/>
<path d="M86.5291 177.606L89.195 177.61L89.2051 180.253L86.5239 180.262L86.5291 177.606Z" fill="black"/>
<path d="M162.356 222.039L165.01 222.041L165.011 224.699L162.349 224.712L162.356 222.039Z" fill="black"/>
<path d="M90.9955 173.154L93.6524 173.158L93.654 175.814L90.9893 175.822L90.9955 173.154Z" fill="black"/>
<path d="M162.351 182.05L165.012 182.054L165.014 184.707L162.342 184.71L162.351 182.05Z" fill="black"/>
<path d="M73.1684 213.152L75.8208 213.148L75.8176 215.832L73.1581 215.834C73.1514 214.94 73.1548 214.046 73.1684 213.152Z" fill="black"/>
<path d="M144.512 226.492L147.176 226.493L147.177 229.137L144.489 229.141L144.512 226.492Z" fill="black"/>
<path d="M126.664 173.157L129.346 173.16C129.35 174.046 129.349 174.931 129.341 175.816L126.653 175.821L126.664 173.157Z" fill="black"/>
<path d="M157.886 199.829L160.546 199.832L160.545 202.492L157.883 202.491L157.886 199.829Z" fill="black"/>
<path d="M90.9979 222.041H93.6514L93.6511 224.7L90.9902 224.713L90.9979 222.041Z" fill="black"/>
<path d="M184.653 213.152L187.305 213.148L187.302 215.832L184.642 215.834C184.636 214.94 184.639 214.046 184.653 213.152Z" fill="black"/>
<path d="M104.371 222.039L107.053 222.041C107.053 222.929 107.049 223.817 107.038 224.705L104.36 224.712L104.371 222.039Z" fill="black"/>
<path d="M135.587 173.157L138.243 173.158L138.249 175.818L135.583 175.821L135.587 173.157Z" fill="black"/>
<path d="M157.892 222.039L160.545 222.041L160.544 224.699L157.885 224.713L157.892 222.039Z" fill="black"/>
<path d="M117.767 222.039L120.418 222.042L120.419 224.705L117.762 224.712L117.767 222.039Z" fill="black"/>
<path d="M153.42 208.726H156.091L156.086 211.323C155.605 211.427 153.994 211.385 153.417 211.381L153.42 208.726Z" fill="black"/>
<path d="M113.296 199.829L115.956 199.832L115.962 202.487L113.294 202.49L113.296 199.829Z" fill="black"/>
<path d="M166.815 226.491L169.478 226.493L169.48 229.136L166.795 229.143L166.815 226.491Z" fill="black"/>
<path d="M113.304 93.1738L115.956 93.188L115.962 95.8419L113.295 95.8431L113.304 93.1738Z" fill="black"/>
<path d="M55.3313 226.491L57.9948 226.493L57.9966 229.136L55.312 229.143L55.3313 226.491Z" fill="black"/>
<path d="M153.421 159.842L156.09 159.836L156.088 162.457C155.664 162.524 153.945 162.497 153.418 162.497L153.421 159.842Z" fill="black"/>
<path d="M95.4627 222.038L98.1152 222.041L98.1138 224.697L95.4551 224.712L95.4627 222.038Z" fill="black"/>
<path d="M140.056 186.493H142.706L142.706 189.159H140.045L140.056 186.493Z" fill="black"/>
<path d="M59.783 222.039L62.4598 222.042C62.4633 222.93 62.4591 223.818 62.4472 224.706L59.7734 224.714L59.783 222.039Z" fill="black"/>
<path d="M162.352 230.93L165.012 230.936L165.014 233.588L162.345 233.592L162.352 230.93Z" fill="black"/>
<path d="M131.12 226.495L133.801 226.494L133.809 229.127C132.984 229.161 131.957 229.136 131.116 229.139L131.12 226.495Z" fill="black"/>
<path d="M144.511 204.283L147.176 204.284L147.174 206.929H144.489L144.511 204.283Z" fill="black"/>
<path d="M171.267 222.039L173.943 222.042C173.947 222.93 173.942 223.818 173.93 224.706L171.258 224.714L171.267 222.039Z" fill="black"/>
<path d="M149.004 230.921L151.642 230.937L151.644 233.589L148.946 233.591C148.943 232.82 148.901 231.655 149.004 230.921Z" fill="black"/>
<path d="M113.298 230.932L115.959 230.939L115.963 233.587L113.292 233.592L113.298 230.932Z" fill="black"/>
<path d="M157.887 182.05L160.547 182.054L160.548 184.708L157.881 184.71L157.887 182.05Z" fill="black"/>
<path d="M90.9941 182.05L93.6515 182.055L93.6555 184.71H90.9883L90.9941 182.05Z" fill="black"/>
<path d="M149.011 93.1787L151.641 93.1837L151.639 95.8402L148.947 95.8437C148.943 95.0852 148.899 93.8955 149.011 93.1787Z" fill="black"/>
<path d="M140.056 222.04L142.705 222.039L142.705 224.699L140.043 224.709L140.056 222.04Z" fill="black"/>
<path d="M157.888 230.926L160.545 230.937L160.547 233.588L157.882 233.591L157.888 230.926Z" fill="black"/>
<path d="M180.193 213.151H182.854L182.844 215.832L180.183 215.834C180.181 214.94 180.184 214.045 180.193 213.151Z" fill="black"/>
<path d="M95.4602 199.829L98.1157 199.832L98.1139 202.492L95.4536 202.491L95.4602 199.829Z" fill="black"/>
<path d="M122.208 195.378L124.887 195.381L124.88 198.057L122.209 198.053C122.196 197.171 122.208 196.262 122.208 195.378Z" fill="black"/>
<path d="M95.4577 182.05L98.1157 182.055L98.1171 184.709L95.4521 184.71L95.4577 182.05Z" fill="black"/>
<path d="M180.183 230.937L182.848 230.944L182.857 233.587L180.182 233.589L180.183 230.937Z" fill="black"/>
<path d="M166.807 204.281L169.477 204.287L169.481 206.927L166.803 206.929L166.807 204.281Z" fill="black"/>
<path d="M68.7092 213.151L71.3696 213.152L71.3606 215.832L68.6986 215.834C68.691 214.946 68.7041 214.041 68.7092 213.151Z" fill="black"/>
<path d="M90.9951 230.929L93.6523 230.936L93.655 233.589L90.9893 233.591L90.9951 230.929Z" fill="black"/>
<path d="M113.297 182.051L115.957 182.056L115.963 184.705L113.293 184.709L113.297 182.051Z" fill="black"/>
<path d="M162.352 177.605L165.011 177.609L165.013 180.257L162.343 180.264L162.352 177.605Z" fill="black"/>
<path d="M99.9049 239.808H102.584C102.59 240.343 102.671 242.154 102.445 242.493L99.8965 242.494C99.9209 241.63 99.9035 240.678 99.9049 239.808Z" fill="black"/>
<path d="M180.182 199.831L182.852 199.834L182.85 202.481L180.183 202.484L180.182 199.831Z" fill="black"/>
<path d="M90.9964 199.831H93.6524L93.6499 202.492L90.9893 202.49L90.9964 199.831Z" fill="black"/>
<path d="M86.5316 222.04L89.1927 222.039C89.2054 222.917 89.1947 223.82 89.1952 224.7L86.5234 224.71L86.5316 222.04Z" fill="black"/>
<path d="M180.195 235.365L182.85 235.374L182.856 238.043L180.182 238.044C180.18 237.151 180.184 236.258 180.195 235.365Z" fill="black"/>
<path d="M68.6996 230.938L71.3638 230.944L71.3737 233.587L68.6978 233.589L68.6996 230.938Z" fill="black"/>
<path d="M180.181 208.727L182.853 208.731L182.845 211.378L180.183 211.38L180.181 208.727Z" fill="black"/>
<path d="M95.4587 230.93L98.1158 230.936L98.1167 233.589L95.4531 233.591L95.4587 230.93Z" fill="black"/>
<path d="M99.8976 190.926L102.585 190.93C102.589 191.464 102.67 193.266 102.446 193.609H99.897C99.9121 192.715 99.9123 191.821 99.8976 190.926Z" fill="black"/>
<path d="M68.6987 199.831L71.3668 199.834L71.3656 202.482L68.6998 202.484L68.6987 199.831Z" fill="black"/>
<path d="M162.353 208.721L165.01 208.728L165.011 211.381L162.348 211.382L162.353 208.721Z" fill="black"/>
<path d="M99.9269 217.594L102.583 217.593C102.589 218.44 102.623 219.447 102.545 220.277L99.9111 220.279L99.9269 217.594Z" fill="black"/>
<path d="M68.7116 235.365L71.3646 235.374L71.3718 238.043L68.698 238.044C68.6966 237.151 68.7011 236.258 68.7116 235.365Z" fill="black"/>
<path d="M86.5294 208.729L89.1929 208.723L89.1942 211.358C88.6906 211.413 87.1058 211.379 86.5239 211.381L86.5294 208.729Z" fill="black"/>
<path d="M68.6978 208.727L71.3679 208.731L71.361 211.378L68.6986 211.38L68.6978 208.727Z" fill="black"/>
<path d="M113.298 208.72L115.957 208.731L115.957 211.38L113.295 211.382L113.298 208.72Z" fill="black"/>
<path d="M99.9192 204.282L102.583 204.285L102.583 206.929H99.9053L99.9192 204.282Z" fill="black"/>
<path d="M131.118 137.625C131.987 137.607 132.923 137.626 133.798 137.627L133.802 140.262C132.991 140.297 131.947 140.271 131.117 140.274L131.118 137.625Z" fill="black"/>
<path d="M153.42 226.491L156.093 226.493L156.093 229.124C155.292 229.163 154.238 229.138 153.417 229.142L153.42 226.491Z" fill="black"/>
<path d="M162.367 213.152L165.01 213.151L165.007 215.832L162.349 215.835C162.349 214.941 162.355 214.046 162.367 213.152Z" fill="black"/>
<path d="M131.119 88.7461L133.798 88.7471L133.801 91.3784C132.988 91.4132 131.949 91.3863 131.119 91.389V88.7461Z" fill="black"/>
<path d="M117.766 173.157L120.419 173.159L120.42 175.812L117.76 175.824L117.766 173.157Z" fill="black"/>
<path d="M90.9951 177.604L93.6519 177.608L93.6549 180.259L90.9893 180.261L90.9951 177.604Z" fill="black"/>
<path d="M126.658 88.7507C127.514 88.7261 128.484 88.7488 129.349 88.7492L129.348 91.3832L126.659 91.3893L126.658 88.7507Z" fill="black"/>
<path d="M113.298 177.606L115.958 177.61L115.962 180.256L113.293 180.263L113.298 177.606Z" fill="black"/>
<path d="M95.4738 213.153L98.1141 213.148L98.1113 215.832L95.4556 215.835C95.4563 214.941 95.4625 214.047 95.4738 213.153Z" fill="black"/>
<path d="M131.118 204.286H133.799L133.799 206.916C132.981 206.95 131.953 206.923 131.119 206.926L131.118 204.286Z" fill="black"/>
<path d="M157.89 208.721L160.546 208.728L160.545 211.382H157.885L157.89 208.721Z" fill="black"/>
<path d="M135.586 230.936L138.244 230.938L138.248 233.589L135.583 233.59L135.586 230.936Z" fill="black"/>
<path d="M180.183 226.492L182.849 226.495L182.857 229.136L180.181 229.139L180.183 226.492Z" fill="black"/>
<path d="M198.014 226.493H200.679L200.686 229.124C199.91 229.167 198.808 229.138 198.007 229.141L198.014 226.493Z" fill="black"/>
<path d="M153.42 204.283L156.093 204.284L156.089 206.904C155.643 206.957 153.951 206.927 153.417 206.929L153.42 204.283Z" fill="black"/>
<path d="M73.1572 208.727H75.8199L75.8193 211.379L73.1591 211.38L73.1572 208.727Z" fill="black"/>
<path d="M86.5298 226.492L89.1953 226.493L89.2025 229.123C88.441 229.169 87.313 229.138 86.5234 229.141L86.5298 226.492Z" fill="black"/>
<path d="M184.641 208.729H187.304V211.38L184.642 211.381L184.641 208.729Z" fill="black"/>
<path d="M140.053 199.831H142.706L142.704 202.491L140.045 202.487L140.053 199.831Z" fill="black"/>
<path d="M140.053 230.935L142.705 230.937L142.708 233.59L140.044 233.591L140.053 230.935Z" fill="black"/>
<path d="M99.9171 182.052L102.584 182.054C102.596 182.938 102.589 183.823 102.563 184.708L99.8975 184.71L99.9171 182.052Z" fill="black"/>
<path d="M131.118 133.183L133.799 133.182L133.804 135.808C132.992 135.844 131.947 135.818 131.117 135.82L131.118 133.183Z" fill="black"/>
<path d="M68.6997 226.492L71.3636 226.495L71.3725 229.136L68.6973 229.139L68.6997 226.492Z" fill="black"/>
<path d="M73.1613 230.938L75.8184 230.941L75.8231 233.588L73.1533 233.59L73.1613 230.938Z" fill="black"/>
<path d="M135.585 182.054L138.244 182.056L138.245 184.707H135.583L135.585 182.054Z" fill="black"/>
<path d="M86.5297 173.157L89.1956 173.158C89.2068 174.06 89.2264 174.92 89.1737 175.822L86.5239 175.823L86.5297 173.157Z" fill="black"/>
<path d="M184.645 230.938L187.302 230.941L187.307 233.588L184.638 233.59L184.645 230.938Z" fill="black"/>
<path d="M140.052 182.053L142.706 182.055L142.707 184.708H140.045L140.052 182.053Z" fill="black"/>
<path d="M157.903 213.152L160.544 213.151L160.542 215.833L157.885 215.835C157.886 214.941 157.892 214.048 157.903 213.152Z" fill="black"/>
<path d="M73.171 235.364L75.8188 235.373L75.8195 238.043L73.1546 238.044C73.1516 237.151 73.157 236.257 73.171 235.364Z" fill="black"/>
<path d="M166.818 222.039L169.477 222.042L169.479 224.704L166.804 224.712C166.796 223.831 166.813 222.923 166.818 222.039Z" fill="black"/>
<path d="M184.655 235.364L187.302 235.373L187.303 238.043L184.638 238.044C184.635 237.151 184.641 236.257 184.655 235.364Z" fill="black"/>
<path d="M90.9968 208.726L93.6502 208.725L93.648 211.38L90.9902 211.381L90.9968 208.726Z" fill="black"/>
<path d="M95.4615 208.726H98.1145L98.113 211.38L95.4546 211.381L95.4615 208.726Z" fill="black"/>
<path d="M55.3345 222.041L57.9935 222.043L57.9954 224.704L55.3209 224.713C55.312 223.833 55.3288 222.924 55.3345 222.041Z" fill="black"/>
<path d="M117.765 66.5117L120.418 66.5178L120.42 69.1672L117.76 69.1705L117.765 66.5117Z" fill="black"/>
<path d="M113.299 226.491L115.959 226.494L115.962 229.136L113.293 229.143L113.299 226.491Z" fill="black"/>
<path d="M73.1599 199.831L75.8193 199.834L75.8192 202.484L73.1577 202.482L73.1599 199.831Z" fill="black"/>
<path d="M117.763 199.829L120.419 199.833L120.419 202.484L117.762 202.487L117.763 199.829Z" fill="black"/>
<path d="M95.4626 159.845L98.1145 159.835L98.1121 162.494L95.4551 162.497L95.4626 159.845Z" fill="black"/>
<path d="M135.586 208.729L138.246 208.723L138.237 211.381L135.584 211.379L135.586 208.729Z" fill="black"/>
<path d="M117.776 213.151L120.419 213.152L120.413 215.831L117.764 215.835C117.749 214.949 117.768 214.039 117.776 213.151Z" fill="black"/>
<path d="M135.587 177.608L138.243 177.609L138.247 180.259L135.583 180.261L135.587 177.608Z" fill="black"/>
<path d="M99.902 186.492L102.584 186.49C102.588 187.015 102.665 188.799 102.45 189.159L99.8945 189.16C99.9213 188.294 99.9038 187.364 99.902 186.492Z" fill="black"/>
<path d="M117.763 208.721L120.419 208.73L120.418 211.38L117.764 211.382L117.763 208.721Z" fill="black"/>
<path d="M135.586 199.831L138.244 199.832L138.238 202.49L135.583 202.482L135.586 199.831Z" fill="black"/>
<path d="M113.309 213.152H115.958L115.952 215.831L113.296 215.835C113.29 214.946 113.303 214.042 113.309 213.152Z" fill="black"/>
<path d="M140.054 208.728L142.705 208.722L142.703 211.381H140.046L140.054 208.728Z" fill="black"/>
<path d="M140.064 213.153L142.703 213.146L142.701 215.833L140.046 215.832C140.045 214.939 140.052 214.046 140.064 213.153Z" fill="black"/>
<path d="M86.5298 204.285L89.1994 204.284L89.1938 206.883C88.7445 206.962 87.0658 206.93 86.5234 206.929L86.5298 204.285Z" fill="black"/>
<path d="M184.645 217.596L187.304 217.593L187.306 220.278C186.399 220.284 185.544 220.292 184.637 220.252L184.645 217.596Z" fill="black"/>
<path d="M86.5392 213.153L89.1928 213.146C89.2086 214.026 89.1929 214.949 89.19 215.833H86.5244L86.5392 213.153Z" fill="black"/>
<path d="M135.599 213.153L138.243 213.146L138.235 215.834L135.585 215.832C135.584 214.939 135.589 214.046 135.599 213.153Z" fill="black"/>
<path d="M117.764 182.053L120.418 182.057L120.42 184.704L117.76 184.708L117.764 182.053Z" fill="black"/>
<path d="M162.354 226.491L165.011 226.493L165.012 229.135L162.347 229.143L162.354 226.491Z" fill="black"/>
<path d="M99.9197 230.932L102.584 230.937C102.59 231.818 102.611 232.712 102.553 233.59L99.8994 233.593L99.9197 230.932Z" fill="black"/>
<path d="M135.586 137.622L138.244 137.626L138.241 140.276L135.583 140.275L135.586 137.622Z" fill="black"/>
<path d="M73.1632 226.493L75.8194 226.494L75.8241 229.138L73.1528 229.139L73.1632 226.493Z" fill="black"/>
<path d="M135.586 226.493H138.244L138.249 229.139H135.583L135.586 226.493Z" fill="black"/>
<path d="M122.21 66.5127L124.886 66.5205L124.889 69.168L122.208 69.1695C122.192 68.3017 122.208 67.3848 122.21 66.5127Z" fill="black"/>
<path d="M184.648 226.493L187.304 226.494L187.308 229.138L184.637 229.139L184.648 226.493Z" fill="black"/>
<path d="M113.296 204.28L115.956 204.287L115.961 206.927L113.295 206.931L113.296 204.28Z" fill="black"/>
<path d="M122.207 199.831L124.887 199.834L124.886 202.484H122.21C122.195 201.612 122.207 200.704 122.207 199.831Z" fill="black"/>
<path d="M117.765 230.935L120.419 230.942L120.419 233.587L117.759 233.591L117.765 230.935Z" fill="black"/>
<path d="M162.351 204.281L165.01 204.287L165.012 206.928L162.347 206.929L162.351 204.281Z" fill="black"/>
<path d="M180.182 204.284L182.852 204.287L182.847 206.925L180.182 206.927V204.284Z" fill="black"/>
<path d="M90.9963 226.491L93.6523 226.493L93.6531 229.137L90.9897 229.142L90.9963 226.491Z" fill="black"/>
<path d="M126.806 186.491L129.348 186.501C129.356 187.044 129.438 188.783 129.226 189.157H126.656C126.647 188.614 126.539 186.817 126.806 186.491Z" fill="black"/>
<path d="M157.89 226.489L160.546 226.493V229.135L157.884 229.142L157.89 226.489Z" fill="black"/>
<path d="M68.6982 204.284L71.3664 204.287L71.3625 206.925L68.6985 206.927L68.6982 204.284Z" fill="black"/>
<path d="M95.4607 226.491L98.1158 226.493L98.1154 229.136L95.4541 229.143L95.4607 226.491Z" fill="black"/>
<path d="M144.513 106.51L147.175 106.505L147.174 109.163L144.494 109.165C144.489 108.288 144.506 107.389 144.513 106.51Z" fill="black"/>
<path d="M122.215 226.491L124.886 226.496L124.888 229.136L122.207 229.14C122.187 228.279 122.209 227.358 122.215 226.491Z" fill="black"/>
<path d="M122.213 177.608L124.886 177.612L124.889 180.254L122.209 180.259C122.191 179.394 122.208 178.477 122.213 177.608Z" fill="black"/>
<path d="M117.765 177.607L120.418 177.611L120.42 180.254L117.76 180.261L117.765 177.607Z" fill="black"/>
<path d="M157.889 204.282L160.546 204.285V206.929H157.884L157.889 204.282Z" fill="black"/>
<path d="M140.053 88.7432L142.706 88.7437L142.704 91.393L140.044 91.3913L140.053 88.7432Z" fill="black"/>
<path d="M140.054 226.492H142.705L142.708 229.138L140.044 229.14L140.054 226.492Z" fill="black"/>
<path d="M122.212 230.935L124.886 230.943L124.888 233.587L122.207 233.589C122.192 232.721 122.208 231.808 122.212 230.935Z" fill="black"/>
<path d="M99.9414 93.1797L102.583 93.1855L102.583 95.844L99.905 95.8437C99.8975 94.9555 99.9096 94.0673 99.9414 93.1797Z" fill="black"/>
<path d="M126.907 93.1777L129.348 93.1906C129.355 93.7258 129.508 95.5643 129.144 95.8423L126.659 95.842C126.65 95.1993 126.589 93.8574 126.704 93.2846L126.907 93.1777Z" fill="black"/>
<path d="M122.207 208.725L124.887 208.73L124.885 211.378L122.211 211.38C122.195 210.509 122.207 209.6 122.207 208.725Z" fill="black"/>
<path d="M117.763 88.7402L120.418 88.7467L120.419 91.3896L117.762 91.3909L117.763 88.7402Z" fill="black"/>
<path d="M135.586 88.7432L138.244 88.7448L138.238 91.3918L135.583 91.3888L135.586 88.7432Z" fill="black"/>
<path d="M99.9253 222.039L102.583 222.041C102.586 222.929 102.581 223.817 102.566 224.705L99.9102 224.712L99.9253 222.039Z" fill="black"/>
<path d="M117.766 226.491L120.419 226.494L120.419 229.135L117.759 229.143L117.766 226.491Z" fill="black"/>
<path d="M95.4608 204.283L98.1153 204.284L98.1136 206.928L95.4546 206.929L95.4608 204.283Z" fill="black"/>
<path d="M113.313 186.492L115.956 186.495L115.963 189.157L113.293 189.159C113.289 188.27 113.295 187.381 113.313 186.492Z" fill="black"/>
<path d="M122.21 182.053L124.887 182.058L124.888 184.704L122.209 184.706C122.19 183.845 122.208 182.921 122.21 182.053Z" fill="black"/>
<path d="M90.9971 204.284H93.6511L93.6485 206.929H90.9897L90.9971 204.284Z" fill="black"/>
<path d="M73.1594 204.283L75.8196 204.288L75.8193 206.926L73.1592 206.927L73.1594 204.283Z" fill="black"/>
<path d="M184.643 204.284L187.303 204.287L187.302 206.926L184.642 206.927L184.643 204.284Z" fill="black"/>
<path d="M122.207 204.283L124.887 204.288L124.886 206.925L122.212 206.927C122.19 206.075 122.208 205.141 122.207 204.283Z" fill="black"/>
<path d="M140.053 204.284L142.706 204.283L142.703 206.928H140.045L140.053 204.284Z" fill="black"/>
<path d="M117.762 204.282L120.419 204.288L120.418 206.926L117.763 206.929L117.762 204.282Z" fill="black"/>
<path d="M135.586 204.284H138.244L138.237 206.928L135.584 206.927L135.586 204.284Z" fill="black"/>
<path d="M122.408 186.49L124.887 186.5C124.895 187.196 124.945 188.401 124.843 189.049L124.669 189.157H122.21C122.193 188.334 122.15 187.434 122.228 186.622L122.408 186.49Z" fill="black"/>
<path d="M117.806 186.493L120.418 186.499L120.418 189.157L117.761 189.158C117.754 188.316 117.717 187.317 117.806 186.493Z" fill="black"/>
<path d="M157.903 93.1768L160.546 93.1866L160.547 95.8439L157.884 95.8436C157.883 94.9547 157.889 94.0656 157.903 93.1768Z" fill="black"/>
<path d="M122.209 88.7432L124.887 88.7487L124.886 91.3895L122.21 91.3891C122.19 90.5334 122.208 89.605 122.209 88.7432Z" fill="black"/>
<path d="M77.806 186.488L80.2872 186.5C80.2947 187.197 80.3433 188.395 80.2447 189.046L80.0735 189.157L77.5981 189.159C77.5877 188.35 77.5498 187.415 77.6268 186.62L77.806 186.488Z" fill="black"/>
<path d="M99.9236 226.491L102.583 226.493C102.59 227.392 102.594 228.237 102.559 229.136L99.9048 229.143L99.9236 226.491Z" fill="black"/>
<path d="M99.9245 159.842L102.583 159.836C102.589 160.736 102.602 161.596 102.553 162.495L99.9082 162.498L99.9245 159.842Z" fill="black"/>
<path d="M122.492 93.1777L124.887 93.1912C124.895 93.8817 124.945 95.0888 124.841 95.731L124.667 95.8425L122.211 95.8421C122.196 95.1674 122.133 93.9001 122.247 93.2875L122.492 93.1777Z" fill="black"/>
<path d="M117.796 93.1768L120.418 93.1909L120.416 95.8415L117.762 95.8431C117.754 94.9506 117.731 94.0671 117.796 93.1768Z" fill="black"/>
<path d="M122.216 222.039L124.886 222.042C124.89 222.93 124.885 223.818 124.873 224.706L122.206 224.713C122.187 223.841 122.208 222.917 122.216 222.039Z" fill="black"/>
<path d="M131.292 186.491L133.799 186.501C133.804 187.001 133.884 188.81 133.708 189.157L131.117 189.158C131.109 188.596 130.989 186.815 131.292 186.491Z" fill="black"/>
<path d="M140.262 93.1768L142.705 93.183C142.714 93.74 142.801 95.4589 142.563 95.8436L140.045 95.8428C140.039 95.1503 139.991 93.9397 140.093 93.295L140.262 93.1768Z" fill="black"/>
<path d="M131.353 93.1777L133.8 93.1896C133.805 93.67 133.881 95.487 133.709 95.8433L131.119 95.8413C131.11 95.163 131.057 93.9296 131.162 93.3028L131.353 93.1777Z" fill="black"/>
<path d="M84.4926 74.8857L86.9396 74.8976C86.945 75.378 87.0208 77.195 86.8488 77.5513L84.2586 77.5493C84.2497 76.871 84.1965 75.6376 84.3017 75.0109L84.4926 74.8857Z" fill="black"/>
<path d="M84.4926 70.4707L86.9396 70.4826C86.945 70.963 87.0208 72.78 86.8488 73.1362L84.2586 73.1343C84.2497 72.4559 84.1965 71.2226 84.3017 70.5958L84.4926 70.4707Z" fill="black"/>
<path d="M95.6559 93.1748L98.1149 93.1838C98.1213 93.7401 98.2052 95.4698 97.9735 95.8436L95.4541 95.8438C95.4494 95.3286 95.3128 93.4364 95.6559 93.1748Z" fill="black"/>
<path d="M135.591 133.187L138.231 133.186L138.231 135.815L135.59 135.814L135.591 133.187Z" fill="black"/>
<path d="M135.751 186.489L138.244 186.499C138.252 187.047 138.355 188.836 138.093 189.158H135.583C135.576 188.59 135.463 186.815 135.751 186.489Z" fill="black"/>
<path d="M135.794 93.1768L138.245 93.1849C138.253 93.7593 138.343 95.4563 138.091 95.8432L135.584 95.8414C135.576 95.1502 135.528 93.9413 135.628 93.2974L135.794 93.1768Z" fill="black"/>
<path d="M122.216 173.157L124.886 173.16L124.875 175.815C123.991 175.825 123.092 175.817 122.207 175.817C122.189 174.941 122.208 174.036 122.216 173.157Z" fill="black"/>
<path d="M95.4897 168.733L98.1032 168.729L98.0922 171.35L95.4697 171.359L95.4897 168.733Z" fill="black"/>
<path d="M171.305 182.078L173.904 182.084L173.916 184.677L171.29 184.688L171.305 182.078Z" fill="black"/>
<path d="M122.255 164.316L124.858 164.314L124.861 166.904L122.248 166.914L122.255 164.316Z" fill="black"/>
<path d="M162.376 168.758C163.234 168.744 164.129 168.756 164.99 168.756L164.992 171.336L162.371 171.349L162.376 168.758Z" fill="black"/>
<path d="M135.614 168.735L138.224 168.725C138.232 169.616 138.247 170.466 138.196 171.357L135.597 171.355C135.596 170.482 135.601 169.609 135.614 168.735Z" fill="black"/>
<path d="M113.334 173.198L115.924 173.199L115.927 175.775L113.313 175.78L113.334 173.198Z" fill="black"/>
<path d="M149.011 159.876L151.59 159.878L151.592 162.453L149.002 162.458L149.011 159.876Z" fill="black"/>
<path d="M59.8286 213.209L62.4017 213.216L62.4091 215.772L59.8252 215.781L59.8286 213.209Z" fill="black"/>
<path d="M153.477 155.431L156.042 155.435L156.04 158.003L153.464 158.007L153.477 155.431Z" fill="black"/>
<path d="M159.765 173.209C160.248 173.233 160.162 173.151 160.437 173.406C160.623 174.083 160.525 175.02 160.512 175.77L158.631 175.772C158.139 175.759 158.238 175.84 157.975 175.581C157.805 174.873 157.908 173.988 157.93 173.223L159.765 173.209Z" fill="black"/>
<path d="M59.8426 239.871L62.3872 239.877L62.3879 242.428L59.833 242.43L59.8426 239.871Z" fill="black"/>
<path d="M184.707 199.893L187.23 199.901L187.224 202.425L184.705 202.427L184.707 199.893Z" fill="black"/>
<path d="M55.3865 235.448L57.9098 235.442L57.9083 237.962L55.376 237.964L55.3865 235.448Z" fill="black"/>
<path d="M180.262 195.457L182.782 195.46L182.778 197.97L180.254 197.983L180.262 195.457Z" fill="black"/>
<path d="M189.168 208.778H191.685V211.287L189.163 211.294L189.168 208.778Z" fill="black"/>
<path d="M175.815 186.563L178.31 186.561L178.307 189.075L175.807 189.078L175.815 186.563Z" fill="black"/>
<path d="M113.38 88.7969L115.875 88.8014L115.878 91.2923L113.37 91.3076L113.38 88.7969Z" fill="black"/>
<path d="M153.516 97.7012L156.019 97.7035L156.022 100.188L153.513 100.192L153.516 97.7012Z" fill="black"/>
<path d="M135.686 142.129L138.183 142.131L138.18 144.621C137.425 144.654 136.453 144.631 135.682 144.635L135.686 142.129Z" fill="black"/>
<path d="M166.886 173.262L169.372 173.264L169.366 175.749L166.877 175.747L166.886 173.262Z" fill="black"/>
<path d="M131.228 164.366L133.707 164.375L133.71 166.839L131.224 166.838L131.228 164.366Z" fill="black"/>
<path d="M144.596 155.488L147.081 155.489L147.083 157.948L144.592 157.955L144.596 155.488Z" fill="black"/>
<path d="M158.121 159.922L160.465 159.935L160.466 162.39L157.974 162.393C157.963 161.799 157.873 160.338 158.121 159.922Z" fill="black"/>
<path d="M104.492 88.8535L106.912 88.8516L106.925 91.2697L104.479 91.2695L104.492 88.8535Z" fill="black"/>
<path d="M108.941 88.8597L111.362 88.8516L111.369 91.2707L108.937 91.2698L108.941 88.8597Z" fill="black"/>
<path d="M82.2017 177.733L84.626 177.739L84.6206 180.135L82.2054 180.142L82.2017 177.733Z" fill="black"/>
<path d="M153.546 168.849L155.951 168.855L155.938 171.262L153.538 171.258L153.546 168.849Z" fill="black"/>
<path d="M193.702 239.956L196.11 239.968L196.111 242.353L193.693 242.358L193.702 239.956Z" fill="black"/>
<path d="M153.551 88.8778L155.936 88.8691L155.939 91.258L153.544 91.2614L153.551 88.8778Z" fill="black"/>
<path d="M100.074 151.068L102.435 151.069L102.44 153.457L100.064 153.456L100.074 151.068Z" fill="black"/>
<path d="M100.07 88.8746L102.433 88.8691L102.44 91.2533L100.063 91.2583L100.07 88.8746Z" fill="black"/>
<path d="M100.079 133.32L102.41 133.326L102.415 135.677L100.071 135.678L100.079 133.32Z" fill="black"/>
<path d="M100.084 106.652L102.41 106.655L102.403 109.016L100.075 109.016L100.084 106.652Z" fill="black"/>
<path d="M100.077 115.551L102.408 115.552L102.403 117.902L100.075 117.908L100.077 115.551Z" fill="black"/>
<path d="M100.079 137.773L102.408 137.777L102.416 140.119L100.072 140.121L100.079 137.773Z" fill="black"/>
<path d="M100.08 111.1L102.409 111.102C102.414 111.885 102.402 112.685 102.398 113.469L100.075 113.471L100.08 111.1Z" fill="black"/>
<path d="M100.083 128.879L102.408 128.887L102.413 131.223L100.072 131.226L100.083 128.879Z" fill="black"/>
<path d="M131.298 142.226L133.638 142.227L133.639 144.545L131.28 144.549L131.298 142.226Z" fill="black"/>
<path d="M100.077 124.448L102.408 124.456L102.41 126.775L100.074 126.78L100.077 124.448Z" fill="black"/>
<path d="M100.079 142.223L102.407 142.224L102.411 144.548H100.073L100.079 142.223Z" fill="black"/>
<path d="M100.076 120.006L102.408 120.007L102.406 122.329L100.075 122.334L100.076 120.006Z" fill="black"/>
<path d="M100.08 146.676L102.405 146.667L102.409 148.994H100.073L100.08 146.676Z" fill="black"/>
<path d="M100.096 102.214L102.409 102.22L102.404 104.564L100.074 104.563C100.069 103.78 100.076 102.997 100.096 102.214Z" fill="black"/>
<path d="M91.1838 164.447L93.48 164.448L93.4779 166.746L91.1748 166.76L91.1838 164.447Z" fill="black"/>
<path d="M109.03 97.8033L111.325 97.8008L111.325 100.099L109.023 100.099L109.03 97.8033Z" fill="black"/>
<path d="M117.968 62.2705L120.218 62.2761L120.218 64.5086L117.957 64.5163L117.968 62.2705Z" fill="black"/>
<path d="M73.3729 191.143L75.6065 191.145L75.6072 193.397H73.3701L73.3729 191.143Z" fill="black"/>
<path d="M158.129 177.845L160.304 177.846L160.305 180.017L158.117 180.018L158.129 177.845Z" fill="black"/>
<path d="M95.7001 97.874L97.8821 97.8773L97.8829 100.021L95.6963 100.034L95.7001 97.874Z" fill="black"/>
<path d="M109.081 142.314L111.241 142.322L111.238 144.469L109.075 144.479L109.081 142.314Z" fill="black"/>
<path d="M104.64 160.091L106.788 160.094L106.79 162.236L104.625 162.242L104.64 160.091Z" fill="black"/>
<path d="M95.7092 88.9902L97.869 88.9903L97.8631 91.1343L95.7075 91.1378L95.7092 88.9902Z" fill="black"/>
<path d="M109.106 146.753L111.241 146.769L111.24 148.898L109.076 148.901C109.066 148.185 109.076 147.468 109.106 146.753Z" fill="black"/>
<path d="M64.5243 204.532L66.6255 204.535L66.6266 206.66L64.52 206.666L64.5243 204.532Z" fill="black"/>
<path d="M77.9009 182.32L79.996 182.317L79.9966 184.452L77.8911 184.449L77.9009 182.32Z" fill="black"/>
<path d="M193.846 213.438L195.944 213.439V215.531L193.842 215.535L193.846 213.438Z" fill="black"/>
<path d="M198.317 222.34L200.408 222.345L200.41 224.427L198.314 224.426L198.317 222.34Z" fill="black"/>
<path d="M109.132 151.241L111.209 151.244L111.213 153.314L109.127 153.318L109.132 151.241Z" fill="black"/>
<path d="M140.36 177.924L142.408 177.93L142.409 179.976L140.352 179.98L140.36 177.924Z" fill="black"/>
<path d="M95.8 173.489L97.7855 173.496L97.785 175.506L95.7983 175.51L95.8 173.489Z" fill="black"/>
<path d="M110.08 137.928H111.173C111.162 138.553 111.312 139.169 111.143 139.723C110.878 140.01 111 139.925 110.485 139.948C110.364 139.951 110.243 139.953 110.122 139.954C109.781 139.957 109.409 139.997 109.194 139.785C108.974 139.051 109.003 138.837 109.259 138.12C109.565 137.868 109.615 137.946 110.08 137.928Z" fill="black"/>
<path d="M158.228 89.0814L160.197 89.0723L160.2 91.0529L158.224 91.0523L158.228 89.0814Z" fill="black"/>
<path d="M153.776 151.278H155.724L155.726 153.248L153.768 153.247L153.776 151.278Z" fill="black"/>
<path d="M122.569 62.4233L124.534 62.4229L124.531 64.3675L122.568 64.3774L122.569 62.4233Z" fill="black"/>
<path d="M91.3527 93.5459L93.3014 93.5361L93.2994 95.4843L91.3398 95.4872L91.3527 93.5459Z" fill="black"/>
<path d="M86.9158 169.098L88.8227 169.102L88.8188 170.999L86.9062 171.005L86.9158 169.098Z" fill="black"/>
<path d="M140.432 137.998L142.312 138.002L142.307 139.874L140.422 139.872L140.432 137.998Z" fill="black"/>
<path d="M153.839 106.912L155.693 106.908L155.689 108.776L153.835 108.781L153.839 106.912Z" fill="black"/>
<path d="M153.836 142.454L155.693 142.457L155.692 144.315L153.833 144.314L153.836 142.454Z" fill="black"/>
<path d="M153.84 102.476L155.691 102.47L155.69 104.329L153.834 104.335L153.84 102.476Z" fill="black"/>
<path d="M153.838 146.91L155.693 146.911L155.691 148.765L153.833 148.763L153.838 146.91Z" fill="black"/>
<path d="M60.2027 209.132L62.038 209.148L62.0336 210.954L60.1943 210.961L60.2027 209.132Z" fill="black"/>
<path d="M153.849 111.372L155.68 111.366L155.68 113.167L153.842 113.181L153.849 111.372Z" fill="black"/>
<path d="M153.865 138.061L155.651 138.064L155.654 139.688L155.609 139.754C155.258 139.896 154.295 139.84 153.86 139.834L153.865 138.061Z" fill="black"/>
<path d="M153.873 124.719L155.636 124.72L155.64 126.489L153.865 126.485L153.873 124.719Z" fill="black"/>
<path d="M153.872 129.17L155.635 129.171L155.64 130.93L153.866 130.927L153.872 129.17Z" fill="black"/>
<path d="M153.87 133.622L155.636 133.623L155.639 135.375H153.865L153.87 133.622Z" fill="black"/>
<path d="M153.873 115.86L155.636 115.855L155.645 117.606L153.866 117.609L153.873 115.86Z" fill="black"/>
<path d="M154.049 120.289L155.636 120.293C155.647 120.703 155.754 121.794 155.468 122.05L153.866 122.051L153.854 121.529C153.847 121.103 153.783 120.563 154.049 120.289Z" fill="black"/>
<path d="M118.225 71.43L119.951 71.4268L119.944 73.1557L118.218 73.1571L118.225 71.43Z" fill="black"/>
<path d="M118.224 164.758L119.951 164.76L119.951 166.47L118.217 166.476L118.224 164.758Z" fill="black"/>
<path d="M109.332 133.642L111.01 133.641L111.007 135.359H109.316L109.332 133.642Z" fill="black"/>
<path d="M109.328 111.432L111.008 111.436L111 113.128L109.307 113.13L109.328 111.432Z" fill="black"/>
<path d="M109.327 106.987L111.008 106.997L111.005 108.681L109.307 108.684L109.327 106.987Z" fill="black"/>
<path d="M109.341 129.211L111.01 129.201L111.006 130.906L109.315 130.907C109.312 130.352 109.331 129.768 109.341 129.211Z" fill="black"/>
<path d="M109.326 102.559L111.008 102.564L111.01 104.231L109.314 104.234L109.326 102.559Z" fill="black"/>
<path d="M109.329 115.885L111.009 115.888C111.017 116.48 111.006 116.978 110.977 117.57L109.312 117.569L109.329 115.885Z" fill="black"/>
<path d="M109.335 124.789L111.003 124.784L110.998 126.444L109.326 126.447L109.335 124.789Z" fill="black"/>
<path d="M198.534 235.873L200.193 235.874V237.537L198.528 237.54L198.534 235.873Z" fill="black"/>
<path d="M140.551 98.1211L142.22 98.1231L142.225 99.7688L140.54 99.772L140.551 98.1211Z" fill="black"/>
<path d="M55.8139 218.109L57.477 218.112L57.4732 219.762L55.8081 219.763L55.8139 218.109Z" fill="black"/>
<path d="M69.2118 195.887L70.8672 195.889L70.8633 197.532L69.1992 197.544L69.2118 195.887Z" fill="black"/>
<path d="M96.0207 155.94H97.5608L97.5578 157.492H96.0132L96.0207 155.94Z" fill="black"/>
<path d="M140.614 173.715L142.157 173.718L142.155 175.258L140.613 175.271L140.614 173.715Z" fill="black"/>
<path d="M162.937 164.823L164.453 164.827L164.449 166.394H162.905C162.892 165.822 162.904 165.396 162.937 164.823Z" fill="black"/>
<path d="M171.836 178.172L173.371 178.171L173.366 179.692L171.828 179.697L171.836 178.172Z" fill="black"/>
<path d="M149.546 164.846L151.054 164.85L151.043 166.385L149.534 166.389L149.546 164.846Z" fill="black"/>
<path d="M113.889 169.313L115.374 169.317L115.371 170.779L113.88 170.786L113.889 169.313Z" fill="black"/>
<path d="M122.803 71.5565L124.297 71.5547L124.296 73.0034L122.801 73.0185L122.803 71.5565Z" fill="black"/>
<path d="M118.347 98.2266L119.834 98.2278L119.828 99.6753L118.344 99.6787L118.347 98.2266Z" fill="black"/>
<path d="M136.181 98.2289L137.664 98.2236L137.655 99.6763L136.172 99.6767L136.181 98.2289Z" fill="black"/>
<path d="M113.906 98.2266L115.369 98.2267L115.366 99.6754L113.892 99.6789L113.906 98.2266Z" fill="black"/>
<path d="M88.6835 74.8857L90.1463 74.8858L90.1429 76.3346L88.6689 76.3381L88.6835 74.8857Z" fill="black"/>
<path d="M80.9281 74.8857L82.3909 74.8858L82.3876 76.3346L80.9136 76.3381L80.9281 74.8857Z" fill="black"/>
<path d="M88.6835 71.5742L90.1463 71.5743L90.1429 73.0231L88.6689 73.0266L88.6835 71.5742Z" fill="black"/>
<path d="M80.9281 71.5742L82.3909 71.5743L82.3876 73.0231L80.9136 73.0266L80.9281 71.5742Z" fill="black"/>
<path d="M122.807 98.229L124.289 98.2256L124.275 99.6513C123.899 99.6855 123.21 99.6746 122.809 99.6809L122.807 98.229Z" fill="black"/>
<path d="M131.727 98.2295L133.196 98.2227L133.192 99.6743C132.651 99.6889 132.247 99.7766 131.824 99.5027C131.641 99.1406 131.713 98.6578 131.727 98.2295Z" fill="black"/>
<path d="M127.272 98.2291L128.741 98.2246L128.726 99.6729C128.172 99.685 127.804 99.7695 127.369 99.5063C127.188 99.1409 127.258 98.6582 127.272 98.2291Z" fill="black"/>
<path d="M127.3 138.229L128.712 138.232L128.71 139.644C128.253 139.645 127.756 139.742 127.41 139.507C127.195 139.164 127.282 138.666 127.3 138.229Z" fill="black"/>
<path d="M149.601 27.1514L150.998 27.1494L150.995 28.5421L149.598 28.5428L149.601 27.1514Z" fill="black"/>
<path d="M140.667 133.803C141.196 133.791 141.55 133.718 141.969 133.958C142.153 134.307 142.083 134.783 142.07 135.202C141.636 135.2 141.079 135.283 140.769 135.053C140.574 134.697 140.65 134.232 140.667 133.803Z" fill="black"/>
<path d="M109.49 120.478L110.862 120.48L110.86 121.848L109.475 121.853L109.49 120.478Z" fill="black"/>
<path d="M136.28 164.976C136.681 164.964 137.107 164.898 137.438 165.083C137.646 165.384 137.57 165.839 137.558 166.235C137.145 166.254 136.762 166.318 136.399 166.154C136.195 165.848 136.269 165.376 136.28 164.976Z" fill="black"/>
<path d="M180.9 191.655C181.307 191.638 181.647 191.579 182.007 191.747C182.225 192.059 182.149 192.47 182.135 192.879C181.73 192.894 181.354 192.957 181.009 192.78C180.797 192.468 180.88 192.06 180.9 191.655Z" fill="black"/>
<path d="M158.611 98.3387C159.014 98.323 159.351 98.2657 159.707 98.4321C159.928 98.7428 159.853 99.1455 159.84 99.5545C159.443 99.5673 159.06 99.6278 158.721 99.4558C158.51 99.0479 158.598 98.8503 158.611 98.3387Z" fill="black"/>
<path d="M96.2544 178.391C96.6633 178.379 96.7744 178.362 97.1674 178.445C97.4084 178.811 97.3213 178.958 97.3245 179.462C96.9292 179.481 96.7639 179.514 96.3824 179.395C96.1793 179.041 96.2553 178.85 96.2544 178.391Z" fill="black"/>
<path d="M91.8289 89.5596C92.1778 89.5414 92.4085 89.4948 92.7261 89.6318C92.9132 90.0074 92.8333 90.1072 92.8029 90.5665C92.4463 90.5748 92.3305 90.5732 91.9799 90.5137C91.7364 90.1929 91.8274 90.0449 91.8289 89.5596Z" fill="black"/>
<path d="M100.732 169.548C101.083 169.533 101.256 169.502 101.594 169.6C101.818 169.931 101.74 170.08 101.75 170.541C101.382 170.555 101.256 170.562 100.895 170.501C100.657 170.174 100.74 170.025 100.732 169.548Z" fill="black"/>
<path d="M82.9038 174.017C83.2719 173.997 83.3723 173.99 83.7337 174.052C83.9733 174.399 83.8914 174.506 83.9017 174.992C83.5123 175.002 83.4267 175.017 83.0549 174.928C82.846 174.588 82.9138 174.457 82.9038 174.017Z" fill="black"/>
<path d="M189.919 205.132C190.264 205.11 190.445 205.073 190.771 205.18C190.979 205.539 190.907 205.64 190.908 206.093C190.533 206.114 190.463 206.119 190.097 206.058C189.859 205.725 189.936 205.605 189.919 205.132Z" fill="black"/>
<path d="M109.668 156.241C110.008 156.23 110.228 156.194 110.545 156.32C110.727 156.639 110.665 156.799 110.669 157.202C110.316 157.221 110.208 157.224 109.859 157.171C109.609 156.834 109.69 156.728 109.668 156.241Z" fill="black"/>
</g>
<defs>
<clipPath id="clip0_39245_3523">
<rect width="236" height="236" fill="white" transform="translate(10 10)"/>
</clipPath>
<clipPath id="clip1_39245_3523">
<rect width="154" height="223" fill="white" transform="translate(51 23)"/>
</clipPath>
</defs>
</svg>